<?xml version="1.0" encoding="UTF-8"?>
<svg version="1.1" xmlns="http://www.w3.org/2000/svg" width="221" height="233">
<path d="M0 0 C6.61068993 -0.55089083 11.50481488 0.12457468 17 4 C21.1435495 7.64926822 23.05441136 11.58435599 24 17 C24 21.29 24 25.58 24 30 C34.89 30 45.78 30 57 30 C58.02622323 35.13111614 57.6040687 37.18779389 56 42 C56.598125 42.144375 57.19625 42.28875 57.8125 42.4375 C59.56150404 42.8872439 61.28677023 43.42892341 63 44 C65.42480064 43.01561364 65.42480064 43.01561364 67.9375 41.5625 C71.49238725 39.59471174 72.80428745 39 77 39 C77.82000713 44.17100791 78.24266013 49.25461934 78.46484375 54.48291016 C78.50239777 55.3018576 78.53995178 56.12080505 78.5786438 56.96456909 C78.70135103 59.65593709 78.8193666 62.34749022 78.9375 65.0390625 C79.02300233 66.92607197 79.1088644 68.81306517 79.19506836 70.70004272 C79.421097 75.66298118 79.64343099 80.62607731 79.86462402 85.5892334 C80.21784724 93.51016057 80.57492771 101.43090945 80.93533325 109.35151291 C81.05956465 112.09914133 81.18114846 114.84687768 81.30249023 117.59463501 C81.62697586 124.85530333 81.9658373 132.11587812 82.4375 139.36865234 C82.499375 140.32734222 82.56125 141.2860321 82.625 142.27377319 C83.18662752 146.35677055 84.61171644 150.03952205 86.01171875 153.8984375 C90.87654066 169.16590232 90.63419068 186.98557315 83.5625 201.5 C82.75005401 203.02300106 81.89292903 204.52274631 81 206 C80.10474609 207.48113281 80.10474609 207.48113281 79.19140625 208.9921875 C72.23382055 218.54181493 61.20186932 223.75623149 49.9375 226.25 C19.81058985 230.95998173 -8.94282045 219.53906938 -33 202 C-39.68813271 196.9912099 -46.1374324 191.97058811 -52 186 C-53.28040011 184.88278814 -54.57134449 183.77748583 -55.875 182.6875 C-61.08720853 178.16630397 -66.10270398 173.34310925 -69 167 C-71.8913784 167.40158033 -73.67236367 167.74403411 -76 169.5625 C-78 171 -78 171 -80.5625 171.4375 C-83 171 -83 171 -84.54272461 169.36889648 C-86.30412049 166.50563224 -86.98059928 163.93147764 -87.75390625 160.66015625 C-88.05103516 159.43232422 -88.34816406 158.20449219 -88.65429688 156.93945312 C-89.10385742 155.02036133 -89.10385742 155.02036133 -89.5625 153.0625 C-90.16480476 150.53179697 -90.77015706 148.00181684 -91.37890625 145.47265625 C-91.77444702 143.79055054 -91.77444702 143.79055054 -92.17797852 142.07446289 C-92.93034563 139.26051604 -93.8896212 136.68722598 -95 134 C-95.47493912 131.99206292 -95.89039582 129.9692636 -96.25 127.9375 C-96.44078125 126.91527344 -96.6315625 125.89304687 -96.828125 124.83984375 C-97.0110786 121.81695126 -96.61368465 120.51084514 -95 118 C-88.06891547 117.27499116 -83.02507141 119.82148088 -76.8125 122.6875 C-74.75804059 123.60858183 -72.7033553 124.52916002 -70.6484375 125.44921875 C-69.67100586 125.89185059 -68.69357422 126.33448242 -67.68652344 126.79052734 C-64.45616692 128.24483361 -61.20732574 129.63688625 -57.9375 131 C-57.10089844 131.350625 -56.26429687 131.70125 -55.40234375 132.0625 C-52.89701292 133.07967352 -52.89701292 133.07967352 -49.81640625 133.9375 C-47 135 -47 135 -45 138 C-45.12824438 142.87328628 -47.65244268 144.73827748 -51 148 C-51.34359993 151.16730044 -51.34359993 151.16730044 -48.8125 153.3125 C-47.4203125 154.6428125 -47.4203125 154.6428125 -46 156 C-44.33333333 158 -42.66666667 160 -41 162 C-39.38025441 163.71230248 -37.7041054 165.37163262 -36 167 C-35.35933594 167.61230469 -34.71867187 168.22460938 -34.05859375 168.85546875 C-12.88709033 188.52239832 13.50746364 207.08480097 43.640625 206.28125 C53.46657891 205.458612 61.1886277 202.6262915 67.68359375 195.03125 C71.91385756 189.20804396 74.0241915 182.86884014 76 176 C75.64808594 176.70125 75.29617187 177.4025 74.93359375 178.125 C69.88907082 187.81891352 65.2456272 194.6860517 55 199 C51.71131285 194.06696928 51.71015995 188.29935644 50.9375 182.5 C50.76412109 181.28957031 50.59074219 180.07914063 50.41210938 178.83203125 C48.17925722 162.45778209 47.79171331 146.00673528 47.8125 129.5 C47.81290787 128.25923706 47.81290787 128.25923706 47.81332397 126.9934082 C47.85128397 101.50129478 49.21638472 76.2278544 53 51 C49.53642328 63.67340062 46.4936724 76.36316384 43.9375 89.25 C43.76668915 90.10364136 43.5958783 90.95728271 43.41989136 91.83679199 C40.17508846 108.13966207 37.698734 124.46202703 36 141 C35.8983252 141.97590088 35.79665039 142.95180176 35.69189453 143.95727539 C34.97223069 151.59199798 34.78172028 159.21215505 34.75976562 166.87524414 C34.74989568 168.95952934 34.71866719 171.04289076 34.6875 173.12695312 C34.68098184 174.46874428 34.67572673 175.8105423 34.671875 177.15234375 C34.65785645 178.9465979 34.65785645 178.9465979 34.64355469 180.77709961 C35.03770281 184.34090058 35.84279141 186.16353631 38 189 C40.78681364 190.86365993 43.57828822 192.46722694 46.52539062 194.04882812 C48.26171875 195.03515625 48.26171875 195.03515625 51 197 C51 198.32 51 199.64 51 201 C38.10823581 205.64221784 22.7140572 199.76958709 10.78515625 194.3671875 C9.86605469 193.91601562 8.94695312 193.46484375 8 193 C6.94683594 192.48695313 5.89367187 191.97390625 4.80859375 191.4453125 C-9.56388673 184.08090102 -22.65712028 173.46752675 -34 162 C-34.89460938 161.175 -35.78921875 160.35 -36.7109375 159.5 C-37.59007812 158.675 -38.46921875 157.85 -39.375 157 C-40.26960938 156.175 -41.16421875 155.35 -42.0859375 154.5 C-44 152 -44 152 -44.04296875 149.42578125 C-42.79088101 146.51362213 -41.39196842 145.17445063 -38.9375 143.1875 C-38.20402344 142.58292969 -37.47054687 141.97835937 -36.71484375 141.35546875 C-36.14894531 140.90816406 -35.58304688 140.46085938 -35 140 C-35.16962928 137.56417316 -35.16962928 137.56417316 -36 135 C-37.87741066 133.56934054 -37.87741066 133.56934054 -40.25 132.75 C-41.05824219 132.4303125 -41.86648437 132.110625 -42.69921875 131.78125 C-45.11653 130.96043124 -47.46510477 130.32708326 -50 130 C-50 129.34 -50 128.68 -50 128 C-51.04027344 127.81824219 -51.04027344 127.81824219 -52.1015625 127.6328125 C-65.41013559 124.72716716 -77.91586517 118.07890929 -90 112 C-89.67 110.35 -89.34 108.7 -89 107 C-86.03 106.01 -86.03 106.01 -83 105 C-82.85900879 104.2793335 -82.71801758 103.55866699 -82.57275391 102.81616211 C-81.92659548 99.52265929 -81.27583781 96.23008117 -80.625 92.9375 C-80.40328125 91.80376953 -80.1815625 90.67003906 -79.953125 89.50195312 C-78.84685135 83.9217787 -77.69342844 78.43749287 -76 73 C-75.80583496 72.36489502 -75.61166992 71.72979004 -75.41162109 71.07543945 C-72.65977085 62.17666741 -69.52824322 53.51701286 -65.75 45 C-65.23832275 43.84310669 -65.23832275 43.84310669 -64.71630859 42.6628418 C-62.26624522 37.26624522 -62.26624522 37.26624522 -60 35 C-55.43312137 33.49456957 -50.57521139 33.602913 -45.8125 33.375 C-44.88501953 33.3234375 -43.95753906 33.271875 -43.00195312 33.21875 C-42.12087891 33.17492188 -41.23980469 33.13109375 -40.33203125 33.0859375 C-39.52483643 33.0451709 -38.7176416 33.0044043 -37.88598633 32.96240234 C-36 33 -36 33 -35 34 C-35.09002398 36.02408755 -35.24641038 38.04544287 -35.4375 40.0625 C-35.53933594 41.16722656 -35.64117187 42.27195313 -35.74609375 43.41015625 C-35.82988281 44.26480469 -35.91367188 45.11945312 -36 46 C-35.34 45.67 -34.68 45.34 -34 45 C-33.50719126 42.5569908 -33.10952164 40.15030734 -32.75 37.6875 C-31.08748889 27.71020181 -27.45098533 18.10442787 -20 11 C-15.16255314 7.62817365 -11.07392982 5.22129105 -5 6 C-5 5.34 -5 4.68 -5 4 C-3.68 4.33 -2.36 4.66 -1 5 C-1 6.32 -1 7.64 -1 9 C-1.60328125 9.26554688 -2.2065625 9.53109375 -2.828125 9.8046875 C-3.62734375 10.15789063 -4.4265625 10.51109375 -5.25 10.875 C-6.03890625 11.22304688 -6.8278125 11.57109375 -7.640625 11.9296875 C-8.41921875 12.28289063 -9.1978125 12.63609375 -10 13 C-10.73734375 13.32871094 -11.4746875 13.65742188 -12.234375 13.99609375 C-14.80973684 15.46040347 -15.01804124 17.23824099 -16 20 C-16.66888537 21.19808383 -17.35764637 22.38521759 -18.0625 23.5625 C-19.58531479 26.26426817 -20.45183458 28.03990675 -21 31 C-21.33 31.66 -21.66 32.32 -22 33 C-21.01 32.67 -20.02 32.34 -19 32 C-16.24590101 31.76858712 -13.50858416 31.58132362 -10.75 31.4375 C-10.01136719 31.39431641 -9.27273437 31.35113281 -8.51171875 31.30664062 C-5.04380066 31.11397851 -1.6120076 31.00039231 1.86328125 31.00390625 C4.74389903 31.00031893 7.20973721 30.67642734 10 30 C11.24327778 35.84340558 10.57300962 40.26696495 9 46 C14.28969565 38.06545652 14.80632417 26.29322773 14 17 C13.24094953 14.42947326 12.24879031 12.3976774 11 10 C10.505 8.515 10.505 8.515 10 7 C7.75256244 5.84979475 7.75256244 5.84979475 5 5 C3.906875 4.62875 2.81375 4.2575 1.6875 3.875 C0.800625 3.58625 -0.08625 3.2975 -1 3 C-0.67 2.01 -0.34 1.02 0 0 Z M77 170 C78 172 78 172 78 172 Z " fill="#188E6B" transform="translate(126,5)"/>
<path d="M0 0 C6.61068993 -0.55089083 11.50481488 0.12457468 17 4 C21.1435495 7.64926822 23.05441136 11.58435599 24 17 C24 21.29 24 25.58 24 30 C34.89 30 45.78 30 57 30 C58.02622323 35.13111614 57.6040687 37.18779389 56 42 C56.598125 42.144375 57.19625 42.28875 57.8125 42.4375 C59.56150404 42.8872439 61.28677023 43.42892341 63 44 C65.42480064 43.01561364 65.42480064 43.01561364 67.9375 41.5625 C71.49238725 39.59471174 72.80428745 39 77 39 C77.82000713 44.17100791 78.24266013 49.25461934 78.46484375 54.48291016 C78.50239777 55.3018576 78.53995178 56.12080505 78.5786438 56.96456909 C78.70135103 59.65593709 78.8193666 62.34749022 78.9375 65.0390625 C79.02300233 66.92607197 79.1088644 68.81306517 79.19506836 70.70004272 C79.421097 75.66298118 79.64343099 80.62607731 79.86462402 85.5892334 C80.21784724 93.51016057 80.57492771 101.43090945 80.93533325 109.35151291 C81.05956465 112.09914133 81.18114846 114.84687768 81.30249023 117.59463501 C81.62697586 124.85530333 81.9658373 132.11587812 82.4375 139.36865234 C82.499375 140.32734222 82.56125 141.2860321 82.625 142.27377319 C83.18662752 146.35677055 84.61171644 150.03952205 86.01171875 153.8984375 C90.87654066 169.16590232 90.63419068 186.98557315 83.5625 201.5 C82.75005401 203.02300106 81.89292903 204.52274631 81 206 C80.10474609 207.48113281 80.10474609 207.48113281 79.19140625 208.9921875 C72.23382055 218.54181493 61.20186932 223.75623149 49.9375 226.25 C19.81058985 230.95998173 -8.94282045 219.53906938 -33 202 C-39.68813271 196.9912099 -46.1374324 191.97058811 -52 186 C-53.28040011 184.88278814 -54.57134449 183.77748583 -55.875 182.6875 C-61.08720853 178.16630397 -66.10270398 173.34310925 -69 167 C-71.8913784 167.40158033 -73.67236367 167.74403411 -76 169.5625 C-78 171 -78 171 -80.5625 171.4375 C-83 171 -83 171 -84.54272461 169.36889648 C-86.30412049 166.50563224 -86.98059928 163.93147764 -87.75390625 160.66015625 C-88.05103516 159.43232422 -88.34816406 158.20449219 -88.65429688 156.93945312 C-89.10385742 155.02036133 -89.10385742 155.02036133 -89.5625 153.0625 C-90.16480476 150.53179697 -90.77015706 148.00181684 -91.37890625 145.47265625 C-91.77444702 143.79055054 -91.77444702 143.79055054 -92.17797852 142.07446289 C-92.93034563 139.26051604 -93.8896212 136.68722598 -95 134 C-95.47493912 131.99206292 -95.89039582 129.9692636 -96.25 127.9375 C-96.44078125 126.91527344 -96.6315625 125.89304687 -96.828125 124.83984375 C-97.0110786 121.81695126 -96.61368465 120.51084514 -95 118 C-88.06891547 117.27499116 -83.02507141 119.82148088 -76.8125 122.6875 C-74.75804059 123.60858183 -72.7033553 124.52916002 -70.6484375 125.44921875 C-69.67100586 125.89185059 -68.69357422 126.33448242 -67.68652344 126.79052734 C-64.45616692 128.24483361 -61.20732574 129.63688625 -57.9375 131 C-57.10089844 131.350625 -56.26429687 131.70125 -55.40234375 132.0625 C-52.89701292 133.07967352 -52.89701292 133.07967352 -49.81640625 133.9375 C-47 135 -47 135 -45 138 C-45.12824438 142.87328628 -47.65244268 144.73827748 -51 148 C-51.34359993 151.16730044 -51.34359993 151.16730044 -48.8125 153.3125 C-47.4203125 154.6428125 -47.4203125 154.6428125 -46 156 C-44.33333333 158 -42.66666667 160 -41 162 C-39.38025441 163.71230248 -37.7041054 165.37163262 -36 167 C-35.35933594 167.61230469 -34.71867187 168.22460938 -34.05859375 168.85546875 C-12.88709033 188.52239832 13.50746364 207.08480097 43.640625 206.28125 C53.46657891 205.458612 61.1886277 202.6262915 67.68359375 195.03125 C71.91385756 189.20804396 74.0241915 182.86884014 76 176 C75.64808594 176.70125 75.29617187 177.4025 74.93359375 178.125 C69.88907082 187.81891352 65.2456272 194.6860517 55 199 C51.71131285 194.06696928 51.71015995 188.29935644 50.9375 182.5 C50.76412109 181.28957031 50.59074219 180.07914063 50.41210938 178.83203125 C48.17925722 162.45778209 47.79171331 146.00673528 47.8125 129.5 C47.81290787 128.25923706 47.81290787 128.25923706 47.81332397 126.9934082 C47.85128397 101.50129478 49.21638472 76.2278544 53 51 C49.53642328 63.67340062 46.4936724 76.36316384 43.9375 89.25 C43.76668915 90.10364136 43.5958783 90.95728271 43.41989136 91.83679199 C40.17508846 108.13966207 37.698734 124.46202703 36 141 C35.8983252 141.97590088 35.79665039 142.95180176 35.69189453 143.95727539 C34.97223069 151.59199798 34.78172028 159.21215505 34.75976562 166.87524414 C34.74989568 168.95952934 34.71866719 171.04289076 34.6875 173.12695312 C34.68098184 174.46874428 34.67572673 175.8105423 34.671875 177.15234375 C34.65785645 178.9465979 34.65785645 178.9465979 34.64355469 180.77709961 C35.03770281 184.34090058 35.84279141 186.16353631 38 189 C40.78681364 190.86365993 43.57828822 192.46722694 46.52539062 194.04882812 C48.26171875 195.03515625 48.26171875 195.03515625 51 197 C51 198.32 51 199.64 51 201 C38.10823581 205.64221784 22.7140572 199.76958709 10.78515625 194.3671875 C9.86605469 193.91601562 8.94695312 193.46484375 8 193 C6.94683594 192.48695313 5.89367187 191.97390625 4.80859375 191.4453125 C-9.56388673 184.08090102 -22.65712028 173.46752675 -34 162 C-34.89460938 161.175 -35.78921875 160.35 -36.7109375 159.5 C-37.59007812 158.675 -38.46921875 157.85 -39.375 157 C-40.26960938 156.175 -41.16421875 155.35 -42.0859375 154.5 C-44 152 -44 152 -44.04296875 149.42578125 C-42.79088101 146.51362213 -41.39196842 145.17445063 -38.9375 143.1875 C-38.20402344 142.58292969 -37.47054687 141.97835937 -36.71484375 141.35546875 C-36.14894531 140.90816406 -35.58304688 140.46085938 -35 140 C-35.16962928 137.56417316 -35.16962928 137.56417316 -36 135 C-37.87741066 133.56934054 -37.87741066 133.56934054 -40.25 132.75 C-41.05824219 132.4303125 -41.86648437 132.110625 -42.69921875 131.78125 C-45.11653 130.96043124 -47.46510477 130.32708326 -50 130 C-50 129.34 -50 128.68 -50 128 C-51.04027344 127.81824219 -51.04027344 127.81824219 -52.1015625 127.6328125 C-65.41013559 124.72716716 -77.91586517 118.07890929 -90 112 C-89.67 110.68 -89.34 109.36 -89 108 C-89 108.99 -89 109.98 -89 111 C-88.18273437 111.25910156 -87.36546875 111.51820312 -86.5234375 111.78515625 C-82.48285382 113.1783065 -78.56540896 114.7863144 -74.625 116.4375 C-67.0001257 119.62595913 -59.35227688 122.59981785 -51.5 125.1875 C-50.4584375 125.53167969 -49.416875 125.87585938 -48.34375 126.23046875 C-47.5703125 126.48441406 -46.796875 126.73835938 -46 127 C-46 127.66 -46 128.32 -46 129 C-44.96939453 129.27263672 -44.96939453 129.27263672 -43.91796875 129.55078125 C-43.01691406 129.80214844 -42.11585937 130.05351562 -41.1875 130.3125 C-40.29417969 130.55613281 -39.40085938 130.79976562 -38.48046875 131.05078125 C-35.90553896 132.03614808 -34.67651666 132.83831775 -33 135 C-32.375 137.75 -32.375 137.75 -33 141 C-35.05452399 143.6644608 -37.32631701 145.95541889 -40 148 C-40.66 148 -41.32 148 -42 148 C-39.33980734 153.2382172 -35.31068687 157.03315953 -31.1875 161.125 C-30.42920898 161.87837646 -29.67091797 162.63175293 -28.88964844 163.40795898 C-15.10559628 176.91049772 -0.35187516 187.58172451 18 194 C19.43854068 194.5807622 20.87620712 195.16370076 22.3125 195.75 C30.71963977 198.59987789 39.21529751 198.11104259 48 198 C47.25234375 197.63648438 46.5046875 197.27296875 45.734375 196.8984375 C35.63135412 191.74113627 35.63135412 191.74113627 33 186 C27.45365127 160.60753271 33.07682017 129.31225086 38.31787109 104.26416016 C39.23769804 99.86255446 40.1086943 95.45171826 40.98242188 91.04077148 C41.61064142 87.88463658 42.25224424 84.73142201 42.89453125 81.578125 C43.55108658 78.32422587 44.17311332 75.07435876 44.69921875 71.796875 C46.84971868 58.70211108 50.0473389 43.90532221 56 32 C44.78 32 33.56 32 22 32 C21.67 26.72 21.34 21.44 21 16 C17.51864163 7.70522348 17.51864163 7.70522348 10.4375 3.25 C7.13972308 1.82912847 7.13972308 1.82912847 4 2 C4.804375 2.45375 5.60875 2.9075 6.4375 3.375 C9 5 9 5 10 7 C8.948125 6.566875 8.948125 6.566875 7.875 6.125 C4.94547497 4.97866412 1.99078347 3.97374346 -1 3 C-0.67 2.01 -0.34 1.02 0 0 Z M77 170 C78 172 78 172 78 172 Z " fill="#1B8F6E" transform="translate(126,5)"/>
<path d="M0 0 C0.02283554 0.59611084 0.04567108 1.19222168 0.06919861 1.80639648 C0.30852796 8.03629839 0.55267411 14.26599856 0.79956055 20.49560547 C0.89095452 22.81749769 0.98113907 25.13943786 1.07006836 27.46142578 C1.19844222 30.80775211 1.33122999 34.15387929 1.46484375 37.5 C1.50343002 38.5305249 1.5420163 39.5610498 1.58177185 40.62280273 C1.77785634 45.43298726 2.10369019 50.14639426 2.75822449 54.91421509 C3.28019307 59.41721119 3.40898208 63.95382085 3.60546875 68.48046875 C3.65318924 69.5703157 3.70090973 70.66016266 3.75007629 71.78303528 C3.84864231 74.08159061 3.94517678 76.38023385 4.03979492 78.67895508 C4.18632657 82.1596267 4.3499091 85.63924315 4.51367188 89.11914062 C5.46897678 111.04832119 5.46897678 111.04832119 3 121 C2.82170654 121.73162354 2.64341309 122.46324707 2.4597168 123.21704102 C-0.73436553 134.98860453 -6.42178956 148.12416322 -17 155 C-19.15625 154.6015625 -19.15625 154.6015625 -21 154 C-21.12117187 153.00742188 -21.24234375 152.01484375 -21.3671875 150.9921875 C-21.53638805 149.619783 -21.70566303 148.24738767 -21.875 146.875 C-21.99294922 145.90626953 -21.99294922 145.90626953 -22.11328125 144.91796875 C-22.19707031 144.24121094 -22.28085938 143.56445312 -22.3671875 142.8671875 C-22.45569473 142.15132477 -22.54420197 141.43546204 -22.63539124 140.69790649 C-22.89091721 138.80715331 -23.17901665 136.92065046 -23.49119568 135.03842163 C-24.96740117 125.86462691 -25.27929084 116.87398445 -25.23046875 107.609375 C-25.2292729 106.08717895 -25.22882464 104.56498215 -25.2290802 103.04278564 C-25.227532 99.88638549 -25.21936286 96.73010146 -25.20581055 93.57373047 C-25.18864677 89.52523644 -25.18500209 85.47686709 -25.18575573 81.42834091 C-25.18548454 78.30060636 -25.18001445 75.17289913 -25.17275429 72.04517365 C-25.1695735 70.55080623 -25.16760159 69.05643574 -25.16686058 67.56206512 C-25.16470065 65.48761129 -25.15596924 63.4132922 -25.14526367 61.33886719 C-25.14145187 60.15975769 -25.13764008 58.98064819 -25.13371277 57.76580811 C-25 55 -25 55 -24 53 C-23.7677354 50.28737884 -23.58063765 47.59226874 -23.4375 44.875 C-23.39431641 44.12089844 -23.35113281 43.36679688 -23.30664062 42.58984375 C-23.2005168 40.72678112 -23.09974999 38.86341476 -23 37 C-22.34 37 -21.68 37 -21 37 C-21.00523682 36.35039307 -21.01047363 35.70078613 -21.01586914 35.03149414 C-21.03686503 32.04183957 -21.0497313 29.05220059 -21.0625 26.0625 C-21.07087891 25.04091797 -21.07925781 24.01933594 -21.08789062 22.96679688 C-21.13802083 7.27604167 -21.13802083 7.27604167 -19 3 C-18.01 3 -17.02 3 -16 3 C-15.67 3.66 -15.34 4.32 -15 5 C-11.24800362 4.20259585 -8.25637045 2.64882936 -4.90234375 0.83984375 C-3 0 -3 0 0 0 Z " fill="#1A8F6C" transform="translate(201,46)"/>
<path d="M0 0 C6.61068993 -0.55089083 11.50481488 0.12457468 17 4 C21.1435495 7.64926822 23.05441136 11.58435599 24 17 C24 21.29 24 25.58 24 30 C34.89 30 45.78 30 57 30 C58.02622323 35.13111614 57.6040687 37.18779389 56 42 C56.598125 42.144375 57.19625 42.28875 57.8125 42.4375 C59.56150404 42.8872439 61.28677023 43.42892341 63 44 C65.42480064 43.01561364 65.42480064 43.01561364 67.9375 41.5625 C71.49238725 39.59471174 72.80428745 39 77 39 C77.82000713 44.17100791 78.24266013 49.25461934 78.46484375 54.48291016 C78.50239777 55.3018576 78.53995178 56.12080505 78.5786438 56.96456909 C78.70135103 59.65593709 78.8193666 62.34749022 78.9375 65.0390625 C79.02300233 66.92607197 79.1088644 68.81306517 79.19506836 70.70004272 C79.421097 75.66298118 79.64343099 80.62607731 79.86462402 85.5892334 C80.21784724 93.51016057 80.57492771 101.43090945 80.93533325 109.35151291 C81.05956465 112.09914133 81.18114846 114.84687768 81.30249023 117.59463501 C81.62697586 124.85530333 81.9658373 132.11587812 82.4375 139.36865234 C82.499375 140.32734222 82.56125 141.2860321 82.625 142.27377319 C83.18662752 146.35677055 84.61171644 150.03952205 86.01171875 153.8984375 C90.87654066 169.16590232 90.63419068 186.98557315 83.5625 201.5 C82.75005401 203.02300106 81.89292903 204.52274631 81 206 C80.10474609 207.48113281 80.10474609 207.48113281 79.19140625 208.9921875 C72.23382055 218.54181493 61.20186932 223.75623149 49.9375 226.25 C19.81058985 230.95998173 -8.94282045 219.53906938 -33 202 C-39.68813271 196.9912099 -46.1374324 191.97058811 -52 186 C-53.28040011 184.88278814 -54.57134449 183.77748583 -55.875 182.6875 C-61.08720853 178.16630397 -66.10270398 173.34310925 -69 167 C-71.8913784 167.40158033 -73.67236367 167.74403411 -76 169.5625 C-78 171 -78 171 -80.5625 171.4375 C-83 171 -83 171 -84.54272461 169.36889648 C-86.30412049 166.50563224 -86.98059928 163.93147764 -87.75390625 160.66015625 C-88.05103516 159.43232422 -88.34816406 158.20449219 -88.65429688 156.93945312 C-89.10385742 155.02036133 -89.10385742 155.02036133 -89.5625 153.0625 C-90.16480476 150.53179697 -90.77015706 148.00181684 -91.37890625 145.47265625 C-91.77444702 143.79055054 -91.77444702 143.79055054 -92.17797852 142.07446289 C-92.93034563 139.26051604 -93.8896212 136.68722598 -95 134 C-95.47493912 131.99206292 -95.89039582 129.9692636 -96.25 127.9375 C-96.44078125 126.91527344 -96.6315625 125.89304687 -96.828125 124.83984375 C-97.0110786 121.81695126 -96.61368465 120.51084514 -95 118 C-88.06891547 117.27499116 -83.02507141 119.82148088 -76.8125 122.6875 C-74.75804059 123.60858183 -72.7033553 124.52916002 -70.6484375 125.44921875 C-69.67100586 125.89185059 -68.69357422 126.33448242 -67.68652344 126.79052734 C-64.45616692 128.24483361 -61.20732574 129.63688625 -57.9375 131 C-57.10089844 131.350625 -56.26429687 131.70125 -55.40234375 132.0625 C-52.89701292 133.07967352 -52.89701292 133.07967352 -49.81640625 133.9375 C-47 135 -47 135 -45 138 C-45.12824438 142.87328628 -47.65244268 144.73827748 -51 148 C-51.34359993 151.16730044 -51.34359993 151.16730044 -48.8125 153.3125 C-47.4203125 154.6428125 -47.4203125 154.6428125 -46 156 C-44.33333333 158 -42.66666667 160 -41 162 C-39.38025441 163.71230248 -37.7041054 165.37163262 -36 167 C-35.35933594 167.61230469 -34.71867187 168.22460938 -34.05859375 168.85546875 C-26.18011539 176.17405524 -17.59680895 182.55763342 -9 189 C-9.99 189.33 -10.98 189.66 -12 190 C-14.16809923 188.61947118 -16.07591748 187.23508961 -18.0625 185.625 C-18.64539795 185.1623877 -19.2282959 184.69977539 -19.82885742 184.22314453 C-28.15885554 177.55046538 -35.81162066 170.2700435 -43.375 162.75 C-44.0656958 162.06405762 -44.7563916 161.37811523 -45.46801758 160.67138672 C-48.86866288 157.25949342 -52.08883388 153.85169671 -55 150 C-53.91789661 147.47509209 -52.96225186 145.96453963 -50.9375 144.0625 C-48.71029591 141.69160532 -48.35370563 140.18335068 -48 137 C-48.66 136.9175 -49.32 136.835 -50 136.75 C-53.23307571 135.94173107 -55.81411062 134.6887362 -58.7421875 133.1328125 C-64.36488269 130.31173706 -70.23193982 128.11537007 -76.125 125.9375 C-83.72694647 123.11696472 -83.72694647 123.11696472 -86.6171875 121.87890625 C-89.386632 120.85738984 -92.08238981 120.4071084 -95 120 C-94.75765625 120.95777344 -94.5153125 121.91554688 -94.265625 122.90234375 C-93.92677673 124.24731863 -93.58826258 125.5923777 -93.25 126.9375 C-92.97929688 128.01318237 -92.97929688 128.01318237 -92.703125 129.1105957 C-91.58517976 133.57995056 -90.51855019 138.05783128 -89.49023438 142.54858398 C-87.86497043 149.63968829 -86.01034743 156.54548282 -83.734375 163.4609375 C-83 166 -83 166 -83 169 C-78.79470542 167.89324387 -78.79470542 167.89324387 -75.4375 165.3125 C-74 164 -74 164 -71.75 163.875 C-65.40790444 166.46949364 -61.13057409 172.96785598 -56.734375 178.03515625 C-44.31104048 192.10933927 -26.14453684 207.39902565 -8.1875 213.4375 C-4.3212337 214.77428359 -0.63384648 216.06443391 2.9375 218.0625 C17.01943085 225.26448543 32.58137542 224.79677759 48 225 C48 224.34 48 223.68 48 223 C49.23363281 222.67128906 49.23363281 222.67128906 50.4921875 222.3359375 C61.03234641 219.34185079 69.2807764 215.81898097 76 207 C76.66 207 77.32 207 78 207 C78.28746094 206.28070313 78.57492188 205.56140625 78.87109375 204.8203125 C79.59063275 203.02270987 80.31181291 201.22576267 81.03515625 199.4296875 C81.54369141 198.16511719 81.54369141 198.16511719 82.0625 196.875 C82.40410156 196.02679688 82.74570313 195.17859375 83.09765625 194.3046875 C85.43960103 188.32309694 85.2218224 182.8681369 85.25 176.5 C85.270625 175.365625 85.29125 174.23125 85.3125 173.0625 C85.35090675 164.68982909 83.9464186 157.69387883 81.25064087 149.80789185 C79.25875414 143.69008777 78.48663218 138.09340171 78.3046875 131.6796875 C78.26691193 130.73618439 78.22913635 129.79268127 78.19021606 128.82058716 C78.07295794 125.83903484 77.97316669 122.85723621 77.875 119.875 C77.76632993 116.88584856 77.65394523 113.89688139 77.5383606 110.9079895 C77.46791151 109.05829062 77.40193909 107.20841367 77.34127808 105.35836792 C77.15629582 100.17818812 76.70044115 95.13587457 76 90 C75.77904703 87.28855249 75.58512405 84.5901307 75.4375 81.875 C75.3950415 81.09600342 75.35258301 80.31700684 75.30883789 79.5144043 C74.704222 66.69338447 74.91696977 53.83136443 75 41 C74.18015625 41.44472656 73.3603125 41.88945313 72.515625 42.34765625 C71.43796875 42.91355469 70.3603125 43.47945312 69.25 44.0625 C68.18265625 44.63097656 67.1153125 45.19945312 66.015625 45.78515625 C62.97406463 47.01044806 61.95106435 47.25348607 59 46 C59 45.34 59 44.68 59 44 C58.01 44 57.02 44 56 44 C55.22281946 51.72507916 54.74102274 59.4302548 54.4375 67.1875 C54.37272461 68.75854492 54.37272461 68.75854492 54.30664062 70.36132812 C54.20200491 72.90746397 54.09982454 75.45367178 54 78 C53.34 78 52.68 78 52 78 C52.01160156 79.13179688 52.02320313 80.26359375 52.03515625 81.4296875 C52.04453454 82.91145669 52.0536347 84.39322765 52.0625 85.875 C52.07087891 86.62136719 52.07925781 87.36773437 52.08789062 88.13671875 C52.11328125 93.7734375 52.11328125 93.7734375 51 96 C50.89285279 98.08444632 50.85111015 100.17235903 50.83886719 102.25952148 C50.82925964 103.57947617 50.8196521 104.89943085 50.80975342 106.25938416 C50.80489824 107.71328558 50.80062119 109.16718904 50.796875 110.62109375 C50.79404762 111.35679155 50.79122025 112.09248936 50.78830719 112.85048103 C50.77328101 116.76271043 50.76408012 120.67490279 50.75976562 124.5871582 C50.75541821 127.79040148 50.74167923 130.99336976 50.71875 134.1965332 C50.3974269 157.43521594 50.3974269 157.43521594 53.28540039 180.44091797 C54.25423865 185.26624225 54.6803181 190.09453641 55 195 C59.33682855 194.1308044 61.02986338 192.32372431 64 189 C64.47566406 188.47792969 64.95132813 187.95585937 65.44140625 187.41796875 C73.69426712 177.52746447 76.82075835 164.4063845 79 152 C79.66 152 80.32 152 81 152 C81.55998519 159.06203544 80.67001819 165.51150027 79.125 172.375 C78.86444824 173.53394775 78.86444824 173.53394775 78.59863281 174.71630859 C77.67804225 178.62754224 76.63124062 182.31133879 75 186 C73.90341064 182.71023192 74.20046862 181.28696233 75 178 C74.63648438 178.64066406 74.27296875 179.28132812 73.8984375 179.94140625 C68.7066721 188.87390519 64.63511014 194.84693528 55 199 C51.71131285 194.06696928 51.71015995 188.29935644 50.9375 182.5 C50.76412109 181.28957031 50.59074219 180.07914063 50.41210938 178.83203125 C48.17925722 162.45778209 47.79171331 146.00673528 47.8125 129.5 C47.81290787 128.25923706 47.81290787 128.25923706 47.81332397 126.9934082 C47.85128397 101.50129478 49.21638472 76.2278544 53 51 C49.53642328 63.67340062 46.4936724 76.36316384 43.9375 89.25 C43.76668915 90.10364136 43.5958783 90.95728271 43.41989136 91.83679199 C40.17508846 108.13966207 37.698734 124.46202703 36 141 C35.8983252 141.97590088 35.79665039 142.95180176 35.69189453 143.95727539 C34.97223069 151.59199798 34.78172028 159.21215505 34.75976562 166.87524414 C34.74989568 168.95952934 34.71866719 171.04289076 34.6875 173.12695312 C34.68098184 174.46874428 34.67572673 175.8105423 34.671875 177.15234375 C34.65785645 178.9465979 34.65785645 178.9465979 34.64355469 180.77709961 C35.03770281 184.34090058 35.84279141 186.16353631 38 189 C40.78681364 190.86365993 43.57828822 192.46722694 46.52539062 194.04882812 C48.26171875 195.03515625 48.26171875 195.03515625 51 197 C51 198.32 51 199.64 51 201 C38.10823581 205.64221784 22.7140572 199.76958709 10.78515625 194.3671875 C9.86605469 193.91601562 8.94695312 193.46484375 8 193 C6.94683594 192.48695313 5.89367187 191.97390625 4.80859375 191.4453125 C-9.56388673 184.08090102 -22.65712028 173.46752675 -34 162 C-34.89460938 161.175 -35.78921875 160.35 -36.7109375 159.5 C-37.59007812 158.675 -38.46921875 157.85 -39.375 157 C-40.26960938 156.175 -41.16421875 155.35 -42.0859375 154.5 C-44 152 -44 152 -44.04296875 149.42578125 C-42.79088101 146.51362213 -41.39196842 145.17445063 -38.9375 143.1875 C-38.20402344 142.58292969 -37.47054687 141.97835937 -36.71484375 141.35546875 C-36.14894531 140.90816406 -35.58304688 140.46085938 -35 140 C-35.16962928 137.56417316 -35.16962928 137.56417316 -36 135 C-37.87741066 133.56934054 -37.87741066 133.56934054 -40.25 132.75 C-41.05824219 132.4303125 -41.86648437 132.110625 -42.69921875 131.78125 C-45.11653 130.96043124 -47.46510477 130.32708326 -50 130 C-50 129.34 -50 128.68 -50 128 C-51.04027344 127.81824219 -51.04027344 127.81824219 -52.1015625 127.6328125 C-65.41013559 124.72716716 -77.91586517 118.07890929 -90 112 C-89.67 110.68 -89.34 109.36 -89 108 C-89 108.99 -89 109.98 -89 111 C-88.18273437 111.25910156 -87.36546875 111.51820312 -86.5234375 111.78515625 C-82.48285382 113.1783065 -78.56540896 114.7863144 -74.625 116.4375 C-67.0001257 119.62595913 -59.35227688 122.59981785 -51.5 125.1875 C-50.4584375 125.53167969 -49.416875 125.87585938 -48.34375 126.23046875 C-47.5703125 126.48441406 -46.796875 126.73835938 -46 127 C-46 127.66 -46 128.32 -46 129 C-44.96939453 129.27263672 -44.96939453 129.27263672 -43.91796875 129.55078125 C-43.01691406 129.80214844 -42.11585937 130.05351562 -41.1875 130.3125 C-40.29417969 130.55613281 -39.40085938 130.79976562 -38.48046875 131.05078125 C-35.90553896 132.03614808 -34.67651666 132.83831775 -33 135 C-32.375 137.75 -32.375 137.75 -33 141 C-35.05452399 143.6644608 -37.32631701 145.95541889 -40 148 C-40.66 148 -41.32 148 -42 148 C-39.33980734 153.2382172 -35.31068687 157.03315953 -31.1875 161.125 C-30.42920898 161.87837646 -29.67091797 162.63175293 -28.88964844 163.40795898 C-15.10559628 176.91049772 -0.35187516 187.58172451 18 194 C19.43854068 194.5807622 20.87620712 195.16370076 22.3125 195.75 C30.71963977 198.59987789 39.21529751 198.11104259 48 198 C47.25234375 197.63648438 46.5046875 197.27296875 45.734375 196.8984375 C35.63135412 191.74113627 35.63135412 191.74113627 33 186 C27.45365127 160.60753271 33.07682017 129.31225086 38.31787109 104.26416016 C39.23769804 99.86255446 40.1086943 95.45171826 40.98242188 91.04077148 C41.61064142 87.88463658 42.25224424 84.73142201 42.89453125 81.578125 C43.55108658 78.32422587 44.17311332 75.07435876 44.69921875 71.796875 C46.84971868 58.70211108 50.0473389 43.90532221 56 32 C44.78 32 33.56 32 22 32 C21.67 26.72 21.34 21.44 21 16 C17.51864163 7.70522348 17.51864163 7.70522348 10.4375 3.25 C7.13972308 1.82912847 7.13972308 1.82912847 4 2 C4.804375 2.45375 5.60875 2.9075 6.4375 3.375 C9 5 9 5 10 7 C8.948125 6.566875 8.948125 6.566875 7.875 6.125 C4.94547497 4.97866412 1.99078347 3.97374346 -1 3 C-0.67 2.01 -0.34 1.02 0 0 Z M77 170 C78 172 78 172 78 172 Z " fill="#E2EDEC" transform="translate(126,5)"/>
<path d="M0 0 C1.44442842 2.75754517 2.58452049 5.48308023 3.5625 8.4375 C3.81128906 9.17871094 4.06007813 9.91992188 4.31640625 10.68359375 C6.27201921 17.31032795 6.2547251 23.76134244 6.3125 30.625 C6.35600586 32.31302734 6.35600586 32.31302734 6.40039062 34.03515625 C6.48038622 44.68072448 3.58209725 53.02877227 -2 62 C-2.66 61.01 -3.32 60.02 -4 59 C-7.55672179 57.7811879 -7.55672179 57.7811879 -11 57 C-10.67 56.01 -10.34 55.02 -10 54 C-10.61875 54.495 -11.2375 54.99 -11.875 55.5 C-14 57 -14 57 -16 57 C-16.33 57.99 -16.66 58.98 -17 60 C-18.485 59.505 -18.485 59.505 -20 59 C-20 59.66 -20 60.32 -20 61 C-35.6382098 65.01715481 -50.77468105 63.71388879 -66 59 C-68.7080861 58.4047028 -71.41576105 57.88360732 -74.14453125 57.39453125 C-76 57 -76 57 -78 56 C-78.969375 55.855625 -79.93875 55.71125 -80.9375 55.5625 C-84 55 -84 55 -87 53 C-87.1875 49.875 -87.1875 49.875 -87 47 C-87.66 47 -88.32 47 -89 47 C-89 46.34 -89 45.68 -89 45 C-85.02527687 46.04597977 -81.87538334 47.63087419 -78.4375 49.8125 C-63.38522379 59.05117252 -44.57882528 63.92505891 -27.125 59.875 C-18.71268756 57.20677755 -13.82559995 52.51868874 -9.32421875 45.05078125 C-8 43 -8 43 -6.4609375 41.7109375 C-4.14221199 38.99542474 -3.68095063 35.72074221 -2.9375 32.3125 C-2.68371582 31.19693726 -2.68371582 31.19693726 -2.42480469 30.05883789 C-0.7571599 22.43635169 0.20668268 14.75572066 1 7 C0.34 7 -0.32 7 -1 7 C-0.67 4.69 -0.34 2.38 0 0 Z " fill="#3EA0A5" transform="translate(206,150)"/>
<path d="M0 0 C0.66 0 1.32 0 2 0 C1.34605384 4.87301689 0.50183493 9.65753125 -0.48828125 14.4765625 C-6.09867818 42.28454829 -10.29526233 70.07709155 -10.4375 98.5 C-10.44773193 99.79405762 -10.45796387 101.08811523 -10.46850586 102.42138672 C-10.45698486 103.6126416 -10.44546387 104.80389648 -10.43359375 106.03125 C-10.41897095 107.58682617 -10.41897095 107.58682617 -10.40405273 109.17382812 C-9.93312604 112.46775409 -8.96976723 114.33493606 -7 117 C-4.21318636 118.86365993 -1.42171178 120.46722694 1.52539062 122.04882812 C3.26171875 123.03515625 3.26171875 123.03515625 6 125 C6 126.32 6 127.64 6 129 C-6.89176419 133.64221784 -22.2859428 127.76958709 -34.21484375 122.3671875 C-35.13394531 121.91601562 -36.05304688 121.46484375 -37 121 C-38.05316406 120.48695313 -39.10632813 119.97390625 -40.19140625 119.4453125 C-54.56388673 112.08090102 -67.65712028 101.46752675 -79 90 C-80.34191406 88.7625 -80.34191406 88.7625 -81.7109375 87.5 C-82.59007812 86.675 -83.46921875 85.85 -84.375 85 C-85.71691406 83.7625 -85.71691406 83.7625 -87.0859375 82.5 C-89 80 -89 80 -89.04296875 77.42578125 C-87.79088101 74.51362213 -86.39196842 73.17445063 -83.9375 71.1875 C-83.20402344 70.58292969 -82.47054687 69.97835937 -81.71484375 69.35546875 C-81.14894531 68.90816406 -80.58304688 68.46085937 -80 68 C-80.16962928 65.56417316 -80.16962928 65.56417316 -81 63 C-82.87741066 61.56934054 -82.87741066 61.56934054 -85.25 60.75 C-86.46236328 60.27046875 -86.46236328 60.27046875 -87.69921875 59.78125 C-90.11653 58.96043124 -92.46510477 58.32708326 -95 58 C-95 57.34 -95 56.68 -95 56 C-96.04027344 55.81824219 -96.04027344 55.81824219 -97.1015625 55.6328125 C-110.41013559 52.72716716 -122.91586517 46.07890929 -135 40 C-134.67 38.68 -134.34 37.36 -134 36 C-134 36.99 -134 37.98 -134 39 C-133.18273437 39.25910156 -132.36546875 39.51820312 -131.5234375 39.78515625 C-127.48285382 41.1783065 -123.56540896 42.7863144 -119.625 44.4375 C-112.0001257 47.62595913 -104.35227688 50.59981785 -96.5 53.1875 C-95.4584375 53.53167969 -94.416875 53.87585938 -93.34375 54.23046875 C-92.18359375 54.61138672 -92.18359375 54.61138672 -91 55 C-91 55.66 -91 56.32 -91 57 C-90.31292969 57.18175781 -89.62585938 57.36351562 -88.91796875 57.55078125 C-87.56638672 57.92783203 -87.56638672 57.92783203 -86.1875 58.3125 C-85.29417969 58.55613281 -84.40085938 58.79976562 -83.48046875 59.05078125 C-80.90553896 60.03614808 -79.67651666 60.83831775 -78 63 C-77.375 65.75 -77.375 65.75 -78 69 C-80.05452399 71.6644608 -82.32631701 73.95541889 -85 76 C-85.66 76 -86.32 76 -87 76 C-84.33980734 81.2382172 -80.31068687 85.03315953 -76.1875 89.125 C-75.42920898 89.87837646 -74.67091797 90.63175293 -73.88964844 91.40795898 C-60.10559628 104.91049772 -45.35187516 115.58172451 -27 122 C-25.56145932 122.5807622 -24.12379288 123.16370076 -22.6875 123.75 C-14.28036023 126.59987789 -5.78470249 126.11104259 3 126 C2.25234375 125.63648438 1.5046875 125.27296875 0.734375 124.8984375 C-9.36864588 119.74113627 -9.36864588 119.74113627 -12 114 C-17.54249918 88.62515681 -11.93040303 57.34831813 -6.69091797 32.31689453 C-5.96872832 28.84987383 -5.27955436 25.37750209 -4.59765625 21.90234375 C-3.74545123 17.56987085 -2.88906834 13.23840231 -2.015625 8.91015625 C-1.84321289 8.05558838 -1.67080078 7.20102051 -1.49316406 6.32055664 C-1.04233393 4.1992 -0.54138922 2.09985135 0 0 Z " fill="#EBF1EF" transform="translate(171,77)"/>
<path d="M0 0 C1.32 0.33 2.64 0.66 4 1 C4 2.32 4 3.64 4 5 C3.39671875 5.26554688 2.7934375 5.53109375 2.171875 5.8046875 C0.97304687 6.33449219 0.97304687 6.33449219 -0.25 6.875 C-1.03890625 7.22304688 -1.8278125 7.57109375 -2.640625 7.9296875 C-3.41921875 8.28289063 -4.1978125 8.63609375 -5 9 C-6.10601562 9.49306641 -6.10601562 9.49306641 -7.234375 9.99609375 C-9.80973684 11.46040347 -10.01804124 13.23824099 -11 16 C-11.66888537 17.19808383 -12.35764637 18.38521759 -13.0625 19.5625 C-14.58531479 22.26426817 -15.45183458 24.03990675 -16 27 C-16.33 27.66 -16.66 28.32 -17 29 C-16.01 28.67 -15.02 28.34 -14 28 C-11.24590101 27.76858712 -8.50858416 27.58132362 -5.75 27.4375 C-5.01136719 27.39431641 -4.27273437 27.35113281 -3.51171875 27.30664062 C-0.04380066 27.11397851 3.3879924 27.00039231 6.86328125 27.00390625 C9.74389903 27.00031893 12.20973721 26.67642734 15 26 C16.24327778 31.84340558 15.57300962 36.26696495 14 42 C19.4131644 33.88025339 19.19609837 22.4586724 20 13 C20.33 13 20.66 13 21 13 C21.46909786 23.88046418 21.00272711 32.72514247 17 43 C15.34385343 43.38218767 13.67542976 43.71395102 12 44 C11.67 43.67 11.34 43.34 11 43 C11.09017996 40.80949979 11.24666208 38.621534 11.4375 36.4375 C11.53933594 35.23996094 11.64117187 34.04242188 11.74609375 32.80859375 C11.87177734 31.41833984 11.87177734 31.41833984 12 30 C11.11441406 30.0721875 10.22882813 30.144375 9.31640625 30.21875 C-0.47442327 30.9522981 -10.18432755 31.10812858 -20 31 C-20.33 29.35 -20.66 27.7 -21 26 C-25.26138043 31.25570253 -26.10447495 36.37782792 -27 43 C-28.65614657 43.38218767 -30.32457024 43.71395102 -32 44 C-33 43 -33 43 -33.1328125 40.78515625 C-33.13023438 39.88667969 -33.12765625 38.98820312 -33.125 38.0625 C-33.12886719 36.71865234 -33.12886719 36.71865234 -33.1328125 35.34765625 C-33 33 -33 33 -32 31 C-32.82242188 31.0721875 -33.64484375 31.144375 -34.4921875 31.21875 C-41.34915248 31.78884409 -48.11992439 32.1397758 -55 32 C-52.00313106 30.2909991 -49.70513487 29.71093413 -46.26953125 29.55078125 C-44.94211914 29.48600586 -44.94211914 29.48600586 -43.58789062 29.41992188 C-42.67201172 29.38447266 -41.75613281 29.34902344 -40.8125 29.3125 C-39.88501953 29.26544922 -38.95753906 29.21839844 -38.00195312 29.16992188 C-32.95316834 28.94462863 -32.95316834 28.94462863 -31 29 C-30.67 29.33 -30.34 29.66 -30 30 C-30.09002398 32.02408755 -30.24641038 34.04544287 -30.4375 36.0625 C-30.53933594 37.16722656 -30.64117187 38.27195313 -30.74609375 39.41015625 C-30.82988281 40.26480469 -30.91367188 41.11945312 -31 42 C-30.01 41.505 -30.01 41.505 -29 41 C-28.50719126 38.5569908 -28.10952164 36.15030734 -27.75 33.6875 C-26.08748889 23.71020181 -22.45098533 14.10442787 -15 7 C-10.16255314 3.62817365 -6.07392982 1.22129105 0 2 C0 1.34 0 0.68 0 0 Z " fill="#3F9E82" transform="translate(121,9)"/>
<path d="M0 0 C0.66 0 1.32 0 2 0 C2 0.66 2 1.32 2 2 C2.94875 2.309375 3.8975 2.61875 4.875 2.9375 C8 4 8 4 10 5 C7.76995603 10.71448767 4.35415532 14.99047479 -1 18 C-3.93511458 18.42161867 -6.5335265 18.39293638 -9.484375 18.1484375 C-11.92508497 17.87508308 -11.92508497 17.87508308 -13.9296875 18.5 C-16.82969215 19.20037848 -19.41048765 18.88068055 -22.375 18.625 C-24.02628906 18.48964844 -24.02628906 18.48964844 -25.7109375 18.3515625 C-28.83636709 18.01749045 -31.90626014 17.55145212 -35 17 C-35 16.34 -35 15.68 -35 15 C-37.89234315 14.17361624 -39.88742431 14 -43 14 C-45.75 12.75 -45.75 12.75 -48 11 C-48 9.68 -48 8.36 -48 7 C-46.71867188 7.16242188 -45.43734375 7.32484375 -44.1171875 7.4921875 C-39.10678651 8.04672152 -34.16207429 8.15223795 -29.125 8.125 C-28.25456055 8.12306641 -27.38412109 8.12113281 -26.48730469 8.11914062 C-20.28640423 8.07753935 -14.15577074 7.79064945 -8 7 C-8 6.34 -8 5.68 -8 5 C-7.01 5 -6.02 5 -5 5 C-3.31288577 3.3540349 -1.6454378 1.68762851 0 0 Z " fill="#1F9090" transform="translate(194,204)"/>
<path d="M0 0 C0.99 0 1.98 0 3 0 C2.67 11.22 2.34 22.44 2 34 C1.34 34 0.68 34 0 34 C0.01160156 35.13179687 0.02320313 36.26359375 0.03515625 37.4296875 C0.04453454 38.91145669 0.0536347 40.39322765 0.0625 41.875 C0.07087891 42.62136719 0.07925781 43.36773437 0.08789062 44.13671875 C0.11328125 49.7734375 0.11328125 49.7734375 -1 52 C-1.10714721 54.08444632 -1.14888985 56.17235903 -1.16113281 58.25952148 C-1.17074036 59.57947617 -1.1803479 60.89943085 -1.19024658 62.25938416 C-1.19510176 63.71328558 -1.19937881 65.16718904 -1.203125 66.62109375 C-1.20595238 67.35679155 -1.20877975 68.09248936 -1.21169281 68.85048103 C-1.22671899 72.76271043 -1.23591988 76.67490279 -1.24023438 80.5871582 C-1.24458179 83.79040148 -1.25832077 86.99336976 -1.28125 90.1965332 C-1.6025731 113.43521594 -1.6025731 113.43521594 1.28540039 136.44091797 C2.25423865 141.26624225 2.6803181 146.09453641 3 151 C7.33682855 150.1308044 9.02986338 148.32372431 12 145 C12.71349609 144.21689453 12.71349609 144.21689453 13.44140625 143.41796875 C21.69426712 133.52746447 24.82075835 120.4063845 27 108 C27.66 108 28.32 108 29 108 C29.55998519 115.06203544 28.67001819 121.51150027 27.125 128.375 C26.95129883 129.14763184 26.77759766 129.92026367 26.59863281 130.71630859 C25.67804225 134.62754224 24.63124062 138.31133879 23 142 C21.90341064 138.71023192 22.20046862 137.28696233 23 134 C22.63648438 134.64066406 22.27296875 135.28132812 21.8984375 135.94140625 C16.7066721 144.87390519 12.63511014 150.84693528 3 155 C-0.28868715 150.06696928 -0.28984005 144.29935644 -1.0625 138.5 C-1.23587891 137.28957031 -1.40925781 136.07914063 -1.58789062 134.83203125 C-3.82074278 118.45778209 -4.20828669 102.00673528 -4.1875 85.5 C-4.18722809 84.67282471 -4.18695618 83.84564941 -4.18667603 82.9934082 C-4.14868896 57.48311703 -2.72865036 32.25313201 1 7 C-0.98 13.93 -2.96 20.86 -5 28 C-5.66 28 -6.32 28 -7 28 C-6.40317702 21.53315857 -4.87545517 15.68706803 -2.9375 9.5 C-2.65583984 8.5821875 -2.37417969 7.664375 -2.08398438 6.71875 C-1.3951987 4.47727797 -0.70044695 2.23784969 0 0 Z M25 126 C26 128 26 128 26 128 Z " fill="#D6E7E2" transform="translate(178,49)"/>
<path d="M0 0 C2.5625 -0.25 2.5625 -0.25 5 0 C7.17383789 2.17383789 6.51308365 6.85643441 6.6875 9.875 C6.74744141 10.70386719 6.80738281 11.53273437 6.86914062 12.38671875 C6.91619141 13.18464844 6.96324219 13.98257813 7.01171875 14.8046875 C7.05772217 15.53671387 7.10372559 16.26874023 7.15112305 17.02294922 C7 19 7 19 5 22 C-0.59297089 21.50938852 -5.08637777 20.80778413 -10 18 C-10.9609375 15.7109375 -10.9609375 15.7109375 -11 13 C-9.19921875 10.4296875 -9.19921875 10.4296875 -6.6875 7.875 C-4.18447291 5.28945554 -1.99974574 2.99961861 0 0 Z " fill="#3A9D80" transform="translate(20,123)"/>
<path d="M0 0 C6.61068993 -0.55089083 11.50481488 0.12457468 17 4 C21.1435495 7.64926822 23.05441136 11.58435599 24 17 C24 21.29 24 25.58 24 30 C34.89 30 45.78 30 57 30 C58.02622323 35.13111614 57.6040687 37.18779389 56 42 C56.598125 42.144375 57.19625 42.28875 57.8125 42.4375 C59.56150404 42.8872439 61.28677023 43.42892341 63 44 C65.42480064 43.01561364 65.42480064 43.01561364 67.9375 41.5625 C71.49238725 39.59471174 72.80428745 39 77 39 C77.94220126 44.52708611 78.12116149 49.83758352 78.0625 55.4375 C78.05798828 56.26443359 78.05347656 57.09136719 78.04882812 57.94335938 C78.03715811 59.96227146 78.01922718 61.98114574 78 64 C77.67 64 77.34 64 77 64 C75.76597138 59.22907044 75.88734888 54.57530554 75.9375 49.6875 C75.94201172 48.85154297 75.94652344 48.01558594 75.95117188 47.15429688 C75.96289452 45.10283351 75.98082797 43.05140727 76 41 C74.39414507 41.62064937 72.79037383 42.2466918 71.1875 42.875 C70.29417969 43.22304688 69.40085937 43.57109375 68.48046875 43.9296875 C65.82288409 44.98832155 65.82288409 44.98832155 63 47 C60.8125 46.625 60.8125 46.625 59 46 C59 45.34 59 44.68 59 44 C58.01 44 57.02 44 56 44 C55.505 44.99 55.505 44.99 55 46 C55 45.34 55 44.68 55 44 C54.34 44 53.68 44 53 44 C53.48144941 39.18550592 53.8008587 36.39828259 56 32 C44.78 32 33.56 32 22 32 C21.67 26.72 21.34 21.44 21 16 C17.51864163 7.70522348 17.51864163 7.70522348 10.4375 3.25 C7.13972308 1.82912847 7.13972308 1.82912847 4 2 C4.804375 2.45375 5.60875 2.9075 6.4375 3.375 C9 5 9 5 10 7 C9.29875 6.71125 8.5975 6.4225 7.875 6.125 C4.94547497 4.97866412 1.99078347 3.97374346 -1 3 C-0.67 2.01 -0.34 1.02 0 0 Z " fill="#E7F0ED" transform="translate(126,5)"/>
<path d="M0 0 C3.65517035 -0.50860441 4.95226651 -0.0308441 8.11328125 2.01171875 C9.19044133 2.89062851 10.25668249 3.78306338 11.3125 4.6875 C12.13717773 5.34008789 12.13717773 5.34008789 12.97851562 6.00585938 C15.5947518 8.19959778 16.92179286 9.37692116 17.35546875 12.83203125 C17.23816406 13.54746094 17.12085937 14.26289062 17 15 C13.02389214 17.71486934 8.86098023 17.22440753 4.25 17.125 C3.45722656 17.11597656 2.66445312 17.10695313 1.84765625 17.09765625 C-0.10169281 17.07417012 -2.05088575 17.03830137 -4 17 C-4.18576694 12.30357951 -3.88855226 8.87075984 -2 4.5625 C-1.62875 3.69753906 -1.2575 2.83257812 -0.875 1.94140625 C-0.58625 1.30074219 -0.2975 0.66007812 0 0 Z " fill="#1D906E" transform="translate(6,104)"/>
<path d="M0 0 C6.30267439 0.36776168 11.33251843 1.16625922 17 4 C17.36283195 7.31307206 17.16192114 8.74346461 15.35546875 11.60546875 C14.64003906 12.45753906 13.92460938 13.30960938 13.1875 14.1875 C12.47980469 15.04730469 11.77210937 15.90710938 11.04296875 16.79296875 C8.56827263 19.46639763 7.02858548 20.95215882 3.3125 21.125 C2.549375 21.08375 1.78625 21.0425 1 21 C-0.11165232 16.5621439 -0.11527763 12.23043614 -0.0625 7.6875 C-0.05798828 6.94693359 -0.05347656 6.20636719 -0.04882812 5.44335938 C-0.03712175 3.62887101 -0.01918898 1.81442466 0 0 Z " fill="#229271" transform="translate(24,93)"/>
<path d="M0 0 C1.32 0.33 2.64 0.66 4 1 C4 2.32 4 3.64 4 5 C3.39671875 5.26554688 2.7934375 5.53109375 2.171875 5.8046875 C1.37265625 6.15789063 0.5734375 6.51109375 -0.25 6.875 C-1.03890625 7.22304688 -1.8278125 7.57109375 -2.640625 7.9296875 C-3.41921875 8.28289063 -4.1978125 8.63609375 -5 9 C-5.73734375 9.32871094 -6.4746875 9.65742188 -7.234375 9.99609375 C-9.80973684 11.46040347 -10.01804124 13.23824099 -11 16 C-11.66888537 17.19808383 -12.35764637 18.38521759 -13.0625 19.5625 C-14.58531479 22.26426817 -15.45183458 24.03990675 -16 27 C-16.33 27.66 -16.66 28.32 -17 29 C-16.01 28.67 -15.02 28.34 -14 28 C-11.24590101 27.76858712 -8.50858416 27.58132362 -5.75 27.4375 C-5.01136719 27.39431641 -4.27273437 27.35113281 -3.51171875 27.30664062 C-0.04380066 27.11397851 3.3879924 27.00039231 6.86328125 27.00390625 C9.74389903 27.00031893 12.20973721 26.67642734 15 26 C16.24327778 31.84340558 15.57300962 36.26696495 14 42 C19.4131644 33.88025339 19.19609837 22.4586724 20 13 C20.33 13 20.66 13 21 13 C21.46909786 23.88046418 21.00272711 32.72514247 17 43 C14.525 43.495 14.525 43.495 12 44 C12.14262412 42.4372038 12.28925511 40.87477304 12.4375 39.3125 C12.51871094 38.44238281 12.59992188 37.57226562 12.68359375 36.67578125 C12.98843609 34.09779359 13.49089259 31.54553705 14 29 C-2.335 29.495 -2.335 29.495 -19 30 C-17.92397661 21.39181287 -17.92397661 21.39181287 -15 18 C-14.73316406 17.2265625 -14.46632813 16.453125 -14.19140625 15.65625 C-12.75861391 12.46182774 -11.03942765 10.93323188 -8.375 8.6875 C-7.55773437 7.99011719 -6.74046875 7.29273438 -5.8984375 6.57421875 C-4.95871094 5.79498047 -4.95871094 5.79498047 -4 5 C-4.90492187 5.23009766 -4.90492187 5.23009766 -5.828125 5.46484375 C-8.20641965 6.0508624 -10.59587687 6.53253161 -13 7 C-10.86209051 4.64829956 -8.99406599 3.11208165 -6 2 C-2.75 1.875 -2.75 1.875 0 2 C0 1.34 0 0.68 0 0 Z " fill="#D4E5E0" transform="translate(121,9)"/>
<path d="M0 0 C0.69921875 1.7265625 0.69921875 1.7265625 1 4 C-0.29296875 6.1484375 -0.29296875 6.1484375 -2.1875 8.375 C-5.03061096 11.81516426 -7.593174 15.24535144 -10 19 C-11.485 18.505 -11.485 18.505 -13 18 C-13 18.66 -13 19.32 -13 20 C-28.6382098 24.01715481 -43.77468105 22.71388879 -59 18 C-61.7080861 17.4047028 -64.41576105 16.88360732 -67.14453125 16.39453125 C-69 16 -69 16 -71 15 C-71.969375 14.855625 -72.93875 14.71125 -73.9375 14.5625 C-77 14 -77 14 -80 12 C-80.1875 8.875 -80.1875 8.875 -80 6 C-80.66 6 -81.32 6 -82 6 C-82 5.34 -82 4.68 -82 4 C-78.02527687 5.04597977 -74.87538334 6.63087419 -71.4375 8.8125 C-56.38522379 18.05117252 -37.57882528 22.92505891 -20.125 18.875 C-10.85006674 15.93317095 -5.77594584 10.26288207 -1 2 C-0.67 1.34 -0.34 0.68 0 0 Z " fill="#C8DEDE" transform="translate(199,191)"/>
<path d="M0 0 C6.27864888 2.77428671 10.5403669 9.13626915 14.953125 14.22265625 C28.68799251 29.78265255 47.55767484 44.35847304 67.3125 50.80859375 C70.69036438 52.18867028 72.9790161 53.77140925 75.6875 56.1875 C69.35541669 55.74027887 64.9483858 54.20875235 59.4375 51.125 C58.69588623 50.71942871 57.95427246 50.31385742 57.19018555 49.89599609 C43.62872159 42.37505438 30.57943473 33.28012364 19.6875 22.1875 C18.40709989 21.07028814 17.11615551 19.96498583 15.8125 18.875 C10.60029147 14.35380397 5.58479602 9.53060925 2.6875 3.1875 C-0.2038784 3.58908033 -1.98486367 3.93153411 -4.3125 5.75 C-6.80158319 7.53902855 -8.31506744 7.43728605 -11.3125 7.1875 C-11.9725 5.8675 -12.6325 4.5475 -13.3125 3.1875 C-12.24 3.435 -11.1675 3.6825 -10.0625 3.9375 C-8.825 4.02 -7.5875 4.1025 -6.3125 4.1875 C-2.03893253 0.16531885 -2.03893253 0.16531885 0 0 Z " fill="#E4EEEB" transform="translate(54.3125,168.8125)"/>
<path d="M0 0 C0.33 0 0.66 0 1 0 C1.04898438 1.2065625 1.09796875 2.413125 1.1484375 3.65625 C1.22353532 5.27085306 1.29908003 6.88543539 1.375 8.5 C1.4059375 9.29148437 1.436875 10.08296875 1.46875 10.8984375 C1.52675781 12.07792969 1.52675781 12.07792969 1.5859375 13.28125 C1.6173584 13.99345703 1.6487793 14.70566406 1.68115234 15.43945312 C1.96113733 18.20142015 1.96113733 18.20142015 3 21.58569336 C4.3504988 26.81016927 4.35347448 31.97663626 4.4140625 37.34765625 C4.43342865 38.43598251 4.4527948 39.52430878 4.4727478 40.64561462 C4.53216339 44.11783114 4.57856898 47.5900883 4.625 51.0625 C4.66325562 53.33660226 4.70231153 55.6106912 4.7421875 57.88476562 C4.9816658 72.25695104 5.05079919 86.62604362 5 101 C4.67 101 4.34 101 4 101 C3.94465088 99.70900391 3.88930176 98.41800781 3.83227539 97.08789062 C3.6249389 92.27198941 3.4133176 87.45628417 3.20043945 82.640625 C3.10911112 80.5612485 3.01892568 78.48182146 2.92993164 76.40234375 C2.8013894 73.40350366 2.66866022 70.40487281 2.53515625 67.40625 C2.49656998 66.48509399 2.4579837 65.56393799 2.41822815 64.61486816 C2.17956086 59.35787314 1.7059548 54.21456773 1 49 C0.77904703 46.28855249 0.58512405 43.5901307 0.4375 40.875 C0.3950415 40.09600342 0.35258301 39.31700684 0.30883789 38.5144043 C-0.295778 25.69338447 -0.08303023 12.83136443 0 0 Z " fill="#9ECABE" transform="translate(201,46)"/>
<path d="M0 0 C0.99 0 1.98 0 3 0 C2.67 11.22 2.34 22.44 2 34 C1.34 34 0.68 34 0 34 C0 39.28 0 44.56 0 50 C-0.33 50 -0.66 50 -1 50 C-2.3504714 35.1448146 -1.25099383 21.7665195 1 7 C-0.98 13.93 -2.96 20.86 -5 28 C-5.66 28 -6.32 28 -7 28 C-6.40317702 21.53315857 -4.87545517 15.68706803 -2.9375 9.5 C-2.65583984 8.5821875 -2.37417969 7.664375 -2.08398438 6.71875 C-1.3951987 4.47727797 -0.70044695 2.23784969 0 0 Z " fill="#DFEAE7" transform="translate(178,49)"/>
<path d="M0 0 C0.6953125 1.60546875 0.6953125 1.60546875 1 4 C-0.2578125 6.92578125 -0.2578125 6.92578125 -2.125 10.3125 C-11.97969517 28.9806766 -15.42199177 50.56286697 -20 71 C-22.64 71.33 -25.28 71.66 -28 72 C-25 70 -25 70 -22 69 C-21.85900879 68.2793335 -21.71801758 67.55866699 -21.57275391 66.81616211 C-20.92659548 63.52265929 -20.27583781 60.23008117 -19.625 56.9375 C-19.29242188 55.2369043 -19.29242188 55.2369043 -18.953125 53.50195312 C-17.84685135 47.9217787 -16.69342844 42.43749287 -15 37 C-14.80583496 36.36489502 -14.61166992 35.72979004 -14.41162109 35.07543945 C-5.16085535 5.16085535 -5.16085535 5.16085535 0 0 Z " fill="#BFD9D2" transform="translate(65,41)"/>
<path d="M0 0 C6.50505211 0.34848493 10.92000443 1.84046235 16 6 C18.0625 8.5625 18.0625 8.5625 19 11 C18.6875 13.3125 18.6875 13.3125 18 15 C18 14.34 18 13.68 18 13 C17.01 13 16.02 13 15 13 C15.01047363 13.62455078 15.02094727 14.24910156 15.03173828 14.89257812 C15.07368106 17.76167671 15.09944653 20.63071048 15.125 23.5 C15.14175781 24.48226563 15.15851563 25.46453125 15.17578125 26.4765625 C15.21499874 32.35918665 14.70432638 37.36364503 13 43 C12.34 43 11.68 43 11 43 C11.875 35.25 11.875 35.25 13 33 C13.23274209 30.12089412 13.41972757 27.25853505 13.5625 24.375 C13.60568359 23.57320312 13.64886719 22.77140625 13.69335938 21.9453125 C13.79951457 19.9637489 13.90026855 17.98189729 14 16 C13.34 16 12.68 16 12 16 C11.5875 14.96875 11.175 13.9375 10.75 12.875 C7.83798982 6.10135793 7.83798982 6.10135793 2.25 1.625 C1.5075 1.41875 0.765 1.2125 0 1 C0 0.67 0 0.34 0 0 Z " fill="#42A183" transform="translate(128,6)"/>
<path d="M0 0 C0.66 0 1.32 0 2 0 C2.55998519 7.06203544 1.67001819 13.51150027 0.125 20.375 C-0.04870117 21.14763184 -0.22240234 21.92026367 -0.40136719 22.71630859 C-1.32195775 26.62754224 -2.36875938 30.31133879 -4 34 C-5.09658936 30.71023192 -4.79953138 29.28696233 -4 26 C-4.37511719 26.68707031 -4.75023437 27.37414062 -5.13671875 28.08203125 C-5.64847656 28.98308594 -6.16023437 29.88414062 -6.6875 30.8125 C-7.43580078 32.15248047 -7.43580078 32.15248047 -8.19921875 33.51953125 C-10.18472636 36.25444955 -12.01765727 37.47072375 -15 39 C-13.59992388 36.06050369 -11.96895368 33.40903478 -10.1875 30.6875 C-4.59793224 21.43533039 -1.67443659 10.6214261 0 0 Z M-2 18 C-1 20 -1 20 -1 20 Z " fill="#D6E6E4" transform="translate(205,157)"/>
<path d="M0 0 C0.33 0.99 0.66 1.98 1 3 C3.66651608 4.05894473 3.66651608 4.05894473 7 5 C8.34747191 5.52439059 9.68839383 6.06582405 11.0234375 6.62109375 C11.735 6.91693359 12.4465625 7.21277344 13.1796875 7.51757812 C13.90414062 7.82115234 14.62859375 8.12472656 15.375 8.4375 C22.9998743 11.62595913 30.64772312 14.59981785 38.5 17.1875 C39.5415625 17.53167969 40.583125 17.87585938 41.65625 18.23046875 C42.81640625 18.61138672 42.81640625 18.61138672 44 19 C44 19.66 44 20.32 44 21 C44.68707031 21.18175781 45.37414062 21.36351562 46.08203125 21.55078125 C46.98308594 21.80214844 47.88414063 22.05351562 48.8125 22.3125 C49.70582031 22.55613281 50.59914062 22.79976562 51.51953125 23.05078125 C54.0985936 24.03772952 55.35906555 24.79769323 57 27 C57.1875 30.1875 57.1875 30.1875 57 33 C55.68 33.66 54.36 34.32 53 35 C53.66 34.01 54.32 33.02 55 32 C55.39491898 29.46285686 55.39491898 29.46285686 54 27 C49.74008114 24.36707274 44.97113219 22.64143641 40 22 C40 21.34 40 20.68 40 20 C39.30648437 19.87882812 38.61296875 19.75765625 37.8984375 19.6328125 C24.58986441 16.72716716 12.08413483 10.07890929 0 4 C0 2.68 0 1.36 0 0 Z " fill="#E0ECE9" transform="translate(36,113)"/>
<path d="M0 0 C3.65517035 -0.50860441 4.95226651 -0.0308441 8.11328125 2.01171875 C9.19044133 2.89062851 10.25668249 3.78306338 11.3125 4.6875 C12.13717773 5.34008789 12.13717773 5.34008789 12.97851562 6.00585938 C15.5947518 8.19959778 16.92179286 9.37692116 17.35546875 12.83203125 C17.23816406 13.54746094 17.12085937 14.26289062 17 15 C13.02389214 17.71486934 8.86098023 17.22440753 4.25 17.125 C3.45722656 17.11597656 2.66445312 17.10695313 1.84765625 17.09765625 C-0.10169281 17.07417012 -2.05088575 17.03830137 -4 17 C-4.18576694 12.30357951 -3.88855226 8.87075984 -2 4.5625 C-1.62875 3.69753906 -1.2575 2.83257812 -0.875 1.94140625 C-0.58625 1.30074219 -0.2975 0.66007812 0 0 Z M0 4 C-1.73152671 8.00985132 -2 10.53419371 -2 15 C3.28 15 8.56 15 14 15 C14.33 13.68 14.66 12.36 15 11 C13.75803878 9.84545838 12.50607155 8.70167438 11.25 7.5625 C10.55390625 6.92441406 9.8578125 6.28632812 9.140625 5.62890625 C5.76006771 3.05647488 4.04090108 2.65303297 0 4 Z " fill="#EAF1EF" transform="translate(6,104)"/>
<path d="M0 0 C6.258654 -0.5326514 10.45108785 1.18150494 16 4 C16 4.33 16 4.66 16 5 C12.08293971 5.22383202 9.59133205 4.4890889 6 3 C4.00421606 2.64228842 2.00435942 2.30603012 0 2 C0.24234375 2.95777344 0.4846875 3.91554688 0.734375 4.90234375 C1.07322327 6.24731863 1.41173742 7.5923777 1.75 8.9375 C1.93046875 9.65462158 2.1109375 10.37174316 2.296875 11.1105957 C3.41484369 15.58004433 4.4813008 20.05806897 5.51000977 24.54882812 C5.67170654 25.25458984 5.83340332 25.96035156 6 26.6875 C6.16105225 27.39068359 6.32210449 28.09386719 6.48803711 28.81835938 C7.81975802 34.50705911 9.49840582 40.01942842 11.36328125 45.55859375 C12 48 12 48 11 50 C10.34 49.67 9.68 49.34 9 49 C8.16210938 46.39550781 8.16210938 46.39550781 7.34375 42.953125 C7.04339844 41.715625 6.74304687 40.478125 6.43359375 39.203125 C6.12186193 37.88554287 5.81066911 36.56783311 5.5 35.25 C4.89025728 32.69149664 4.27417306 30.13468222 3.65625 27.578125 C3.38619141 26.43762695 3.11613281 25.29712891 2.83789062 24.12207031 C2.07835781 21.2919696 1.1174838 18.70290669 0 16 C-0.47493912 13.99206292 -0.89039582 11.9692636 -1.25 9.9375 C-1.44078125 8.91527344 -1.6315625 7.89304688 -1.828125 6.83984375 C-2.0110786 3.81695126 -1.61368465 2.51084514 0 0 Z " fill="#C5DDD6" transform="translate(31,123)"/>
<path d="M0 0 C6.30267439 0.36776168 11.33251843 1.16625922 17 4 C17.36283195 7.31307206 17.16192114 8.74346461 15.35546875 11.60546875 C14.64003906 12.45753906 13.92460938 13.30960938 13.1875 14.1875 C12.47980469 15.04730469 11.77210937 15.90710938 11.04296875 16.79296875 C8.56827263 19.46639763 7.02858548 20.95215882 3.3125 21.125 C2.549375 21.08375 1.78625 21.0425 1 21 C-0.11165232 16.5621439 -0.11527763 12.23043614 -0.0625 7.6875 C-0.05798828 6.94693359 -0.05347656 6.20636719 -0.04882812 5.44335938 C-0.03712175 3.62887101 -0.01918898 1.81442466 0 0 Z M2 2 C2 7.28 2 12.56 2 18 C6.02457652 18.44110846 6.02457652 18.44110846 8.359375 15.91796875 C9.14828125 15.01691406 9.9371875 14.11585937 10.75 13.1875 C11.54921875 12.29417969 12.3484375 11.40085937 13.171875 10.48046875 C15.29664276 8.11106359 15.29664276 8.11106359 15 5 C13.96875 4.505 12.9375 4.01 11.875 3.5 C11.29492188 3.2215625 10.71484375 2.943125 10.1171875 2.65625 C7.4142597 1.70393338 7.4142597 1.70393338 2 2 Z " fill="#CAE0D9" transform="translate(24,93)"/>
<path d="M0 0 C6.59099231 -0.54924936 11.53162332 0.10422838 17 4 C20.29683467 7.13322004 22.8452074 10.28264093 23.11352539 14.99291992 C23.10828857 15.73131104 23.10305176 16.46970215 23.09765625 17.23046875 C23.09515869 17.95387451 23.09266113 18.67728027 23.09008789 19.42260742 C23.08098389 20.33502197 23.07187988 21.24743652 23.0625 22.1875 C23.041875 25.095625 23.02125 28.00375 23 31 C33.89 31 44.78 31 56 31 C56 31.33 56 31.66 56 32 C44.78 32 33.56 32 22 32 C21.67 26.72 21.34 21.44 21 16 C17.51864163 7.70522348 17.51864163 7.70522348 10.4375 3.25 C7.13972308 1.82912847 7.13972308 1.82912847 4 2 C4.804375 2.45375 5.60875 2.9075 6.4375 3.375 C9 5 9 5 10 7 C9.29875 6.71125 8.5975 6.4225 7.875 6.125 C4.94547497 4.97866412 1.99078347 3.97374346 -1 3 C-0.67 2.01 -0.34 1.02 0 0 Z " fill="#DBEAE5" transform="translate(126,5)"/>
<path d="M0 0 C0.609375 1.796875 0.609375 1.796875 1 4 C0.04756255 5.76881241 -0.90737075 7.53632734 -1.875 9.296875 C-4.32624016 15.18666038 -4.99557017 21.72992287 -6 28 C-7.65614657 28.38218767 -9.32457024 28.71395102 -11 29 C-12 28 -12 28 -12.1328125 25.78515625 C-12.13023438 24.88667969 -12.12765625 23.98820312 -12.125 23.0625 C-12.12886719 21.71865234 -12.12886719 21.71865234 -12.1328125 20.34765625 C-12 18 -12 18 -11 16 C-11.82242188 16.0721875 -12.64484375 16.144375 -13.4921875 16.21875 C-20.34915248 16.78884409 -27.11992439 17.1397758 -34 17 C-31.00313106 15.2909991 -28.70513487 14.71093413 -25.26953125 14.55078125 C-23.94211914 14.48600586 -23.94211914 14.48600586 -22.58789062 14.41992188 C-21.67201172 14.38447266 -20.75613281 14.34902344 -19.8125 14.3125 C-18.88501953 14.26544922 -17.95753906 14.21839844 -17.00195312 14.16992188 C-11.95316834 13.94462863 -11.95316834 13.94462863 -10 14 C-9.67 14.33 -9.34 14.66 -9 15 C-9.09002398 17.02408755 -9.24641038 19.04544287 -9.4375 21.0625 C-9.53933594 22.16722656 -9.64117187 23.27195312 -9.74609375 24.41015625 C-9.82988281 25.26480469 -9.91367188 26.11945312 -10 27 C-9.34 26.67 -8.68 26.34 -8 26 C-7.48255083 23.51444935 -7.06196392 21.06985389 -6.6875 18.5625 C-5.5529586 11.68611911 -3.65311261 6.00669899 0 0 Z " fill="#C8DED7" transform="translate(100,24)"/>
<path d="M0 0 C0.33 0 0.66 0 1 0 C1.46909786 10.88046418 1.00272711 19.72514247 -3 30 C-4.65 30.33 -6.3 30.66 -8 31 C-7.85737588 29.4372038 -7.71074489 27.87477304 -7.5625 26.3125 C-7.48128906 25.44238281 -7.40007812 24.57226562 -7.31640625 23.67578125 C-7.01156391 21.09779359 -6.50910741 18.54553705 -6 16 C-15.24 16 -24.48 16 -34 16 C-34 15.67 -34 15.34 -34 15 C-31.31264212 14.83071761 -28.62515116 14.6645047 -25.9375 14.5 C-24.80924805 14.42845703 -24.80924805 14.42845703 -23.65820312 14.35546875 C-19.0960043 14.07897185 -14.57207163 14 -10 14 C-8.32442621 13.71479595 -6.65182755 13.40044304 -5 13 C-3.75672222 18.84340558 -4.42699038 23.26696495 -6 29 C-0.5868356 20.88025339 -0.80390163 9.4586724 0 0 Z " fill="#E5EDEB" transform="translate(141,22)"/>
<path d="M0 0 C0.66 0 1.32 0 2 0 C1.29632603 5.21405251 0.4020268 10.36567517 -0.59375 15.53125 C-0.74533569 16.32599731 -0.89692139 17.12074463 -1.05310059 17.9395752 C-1.69593611 21.30962182 -2.34252251 24.67894605 -2.98876953 28.04833984 C-3.46256876 30.52156228 -3.93444847 32.99514583 -4.40625 35.46875 C-4.62347717 36.59561218 -4.62347717 36.59561218 -4.84509277 37.74523926 C-5.48665764 41.1098192 -6.06305332 44.45146178 -6.53710938 47.84570312 C-7.01327994 51.09049407 -7.96501259 53.89503778 -9 57 C-9.37531446 59.32694964 -9.71917202 61.65976685 -10 64 C-10.33 64 -10.66 64 -11 64 C-11.29903955 56.95121055 -10.15913508 50.46871504 -8.8125 43.5625 C-8.58981445 42.39195068 -8.36712891 41.22140137 -8.13769531 40.01538086 C-7.43501638 36.34159207 -6.71980474 32.67046953 -6 29 C-5.76522949 27.80117187 -5.53045898 26.60234375 -5.28857422 25.3671875 C-1.27213365 4.93414255 -1.27213365 4.93414255 0 0 Z " fill="#E7EFED" transform="translate(171,77)"/>
<path d="M0 0 C5.09595491 1.34104077 9.12597125 3.77628515 13.53515625 6.5625 C15.97389779 8.08266064 15.97389779 8.08266064 18.74609375 9 C19.86177734 9.495 19.86177734 9.495 21 10 C21.33 10.99 21.66 11.98 22 13 C20.54119891 12.85892253 19.08296449 12.71197585 17.625 12.5625 C16.81289062 12.48128906 16.00078125 12.40007812 15.1640625 12.31640625 C13 12 13 12 11 11 C10.030625 10.855625 9.06125 10.71125 8.0625 10.5625 C5 10 5 10 2 8 C1.8125 4.875 1.8125 4.875 2 2 C1.34 2 0.68 2 0 2 C0 1.34 0 0.68 0 0 Z " fill="#23908B" transform="translate(117,195)"/>
<path d="M0 0 C2.5625 -0.25 2.5625 -0.25 5 0 C7.17383789 2.17383789 6.51308365 6.85643441 6.6875 9.875 C6.74744141 10.70386719 6.80738281 11.53273437 6.86914062 12.38671875 C6.91619141 13.18464844 6.96324219 13.98257813 7.01171875 14.8046875 C7.05772217 15.53671387 7.10372559 16.26874023 7.15112305 17.02294922 C7 19 7 19 5 22 C-0.59297089 21.50938852 -5.08637777 20.80778413 -10 18 C-10.9609375 15.7109375 -10.9609375 15.7109375 -11 13 C-9.19921875 10.4296875 -9.19921875 10.4296875 -6.6875 7.875 C-4.18447291 5.28945554 -1.99974574 2.99961861 0 0 Z M-0.71875 3.390625 C-6.9589143 9.21535355 -6.9589143 9.21535355 -9 17 C-4.07015675 19.03993514 -0.42039575 20.40652968 5 20 C5.11269443 13.8894576 4.89604368 8.04829486 4 2 C1.02022663 1.68550255 1.02022663 1.68550255 -0.71875 3.390625 Z " fill="#EFF4F2" transform="translate(20,123)"/>
<path d="M0 0 C0.33 0 0.66 0 1 0 C1.0501123 0.67466309 1.10022461 1.34932617 1.15185547 2.04443359 C1.38655533 5.15513816 1.63072361 8.26503337 1.875 11.375 C1.95363281 12.43589844 2.03226563 13.49679688 2.11328125 14.58984375 C2.58034564 20.44611258 3.31501708 26.08723601 4.55419922 31.82958984 C5.12011833 34.58480391 5.40940171 37.32222222 5.625 40.125 C5.69976562 41.05570313 5.77453125 41.98640625 5.8515625 42.9453125 C5.90054688 43.62335938 5.94953125 44.30140625 6 45 C9.98467756 44.17707746 12.67947232 42.33946269 16 40 C16.66 40.33 17.32 40.66 18 41 C10.88610478 47.51936219 10.88610478 47.51936219 6 49 C2.69294248 44.03941372 2.66019567 38.20606116 1.875 32.375 C1.69614258 31.07022705 1.51728516 29.7654541 1.33300781 28.42114258 C0.09022166 18.86885151 -0.50127659 9.62172568 0 0 Z " fill="#DFEBE8" transform="translate(175,155)"/>
<path d="M0 0 C6.00638558 0.57060663 11.05602706 3.01162922 16.5 5.4375 C18.34276312 6.25093728 20.18648944 7.0621966 22.03125 7.87109375 C22.89234375 8.24991699 23.7534375 8.62874023 24.640625 9.01904297 C27.16242192 10.11020159 27.16242192 10.11020159 30.53125 11.09765625 C33 12 33 12 35 15 C34.65358161 18.46418389 33.96713413 20.04929881 32 23 C30.68 22.67 29.36 22.34 28 22 C28.7115625 21.4121875 28.7115625 21.4121875 29.4375 20.8125 C31.35179633 18.59191626 31.61266988 16.86624291 32 14 C31.34 13.9175 30.68 13.835 30 13.75 C26.68746253 12.92186563 24.04000731 11.59951122 21.0234375 10.03515625 C18.08227915 8.5305096 15.04979672 7.26356926 12 6 C10.97519531 5.57203125 9.95039062 5.1440625 8.89453125 4.703125 C5.93074563 3.46618751 2.96580022 2.23209763 0 1 C0 0.67 0 0.34 0 0 Z " fill="#D8E7E3" transform="translate(46,128)"/>
<path d="M0 0 C0.33 0 0.66 0 1 0 C1 5.28 1 10.56 1 16 C12.22 16 23.44 16 35 16 C34.01 19.96 33.02 23.92 32 28 C31.34 26.68 30.68 25.36 30 24 C30.66 23.67 31.32 23.34 32 23 C32 22.34 32 21.68 32 21 C31.34 20.67 30.68 20.34 30 20 C30.33 19.34 30.66 18.68 31 18 C20.77 17.67 10.54 17.34 0 17 C0 11.39 0 5.78 0 0 Z " fill="#44A286" transform="translate(147,21)"/>
<path d="M0 0 C0.66 0.33 1.32 0.66 2 1 C0.71034824 2.37562854 -0.62689293 3.70766393 -2 5 C-2.66 5 -3.32 5 -4 5 C-1.51783325 9.758233 1.88420742 13.11634242 5.6875 16.8125 C6.29400391 17.40998047 6.90050781 18.00746094 7.52539062 18.62304688 C9.01240312 20.08664185 10.50558811 21.54396102 12 23 C11.01 23.33 10.02 23.66 9 24 C8.28585938 23.278125 7.57171875 22.55625 6.8359375 21.8125 C5.01812414 20.00970989 3.17111968 18.23561469 1.2890625 16.5 C0.40992187 15.675 -0.46921875 14.85 -1.375 14 C-2.26960938 13.175 -3.16421875 12.35 -4.0859375 11.5 C-6 9 -6 9 -5.94921875 6.33203125 C-4.67322201 3.19717507 -2.74143674 1.89791774 0 0 Z " fill="#D2E4DF" transform="translate(88,148)"/>
<path d="M0 0 C0.33 0.66 0.66 1.32 1 2 C-2.90349285 7.41452234 -7.05874497 10.06657176 -13 13 C-13.64324219 13.37382812 -14.28648437 13.74765625 -14.94921875 14.1328125 C-17.50550866 15.21375795 -19.48609689 15.19773429 -22.25 15.125 C-23.14203125 15.10695312 -24.0340625 15.08890625 -24.953125 15.0703125 C-25.96632812 15.03550781 -25.96632812 15.03550781 -27 15 C-27 14.67 -27 14.34 -27 14 C-26.17757812 13.78085938 -25.35515625 13.56171875 -24.5078125 13.3359375 C-14.96616984 10.62549397 -6.91421113 7.27481624 0 0 Z " fill="#D2E5E1" transform="translate(201,214)"/>
<path d="M0 0 C3.24169906 0.38137636 5.0182242 1.01258276 7.73828125 2.890625 C12.13254305 5.73242305 16.70538677 7.06383766 21.66015625 8.65625 C25.03403561 10.01369386 27.3009077 11.59173617 30 14 C23.48771471 13.56584765 18.97775027 11.85173719 13.3125 8.6875 C12.57966797 8.29626953 11.84683594 7.90503906 11.09179688 7.50195312 C7.07316424 5.31688958 3.48123474 3.00059089 0 0 Z " fill="#E0EBE8" transform="translate(100,211)"/>
<path d="M0 0 C4.28566672 0.49213398 6.81351924 3.23088439 9.875 6 C15.63140484 11.05981751 21.67936118 15.21564088 28.19921875 19.22265625 C31 21 31 21 33 23 C20.56567625 21.17925974 8.49345416 8.73904801 0 0 Z " fill="#EEF4F2" transform="translate(98,172)"/>
<path d="M0 0 C3.22128364 0.99970872 3.97742866 1.95856469 5.6171875 4.96875 C7.48302351 9.58037703 7.40463715 14.02474737 7.3125 18.9375 C7.31572266 19.79279297 7.31894531 20.64808594 7.32226562 21.52929688 C7.27635687 27.00078608 6.52800177 31.74635247 5 37 C4.34 37 3.68 37 3 37 C3.875 29.25 3.875 29.25 5 27 C5.23274209 24.12089412 5.41972757 21.25853505 5.5625 18.375 C5.62727539 17.17230469 5.62727539 17.17230469 5.69335938 15.9453125 C5.79951457 13.9637489 5.90026855 11.98189729 6 10 C5.34 10 4.68 10 4 10 C1.125 3.375 1.125 3.375 0 0 Z " fill="#5EAD95" transform="translate(136,12)"/>
<path d="M0 0 C4.08218712 1.8037571 6.72277141 4.9151915 9.6875 8.1875 C8.6975 8.5175 7.7075 8.8475 6.6875 9.1875 C5.31187146 7.89784824 3.97983607 6.56060707 2.6875 5.1875 C2.6875 4.5275 2.6875 3.8675 2.6875 3.1875 C-0.2038784 3.58908033 -1.98486367 3.93153411 -4.3125 5.75 C-6.80158319 7.53902855 -8.31506744 7.43728605 -11.3125 7.1875 C-11.9725 5.8675 -12.6325 4.5475 -13.3125 3.1875 C-12.24 3.435 -11.1675 3.6825 -10.0625 3.9375 C-8.825 4.02 -7.5875 4.1025 -6.3125 4.1875 C-2.03893253 0.16531885 -2.03893253 0.16531885 0 0 Z " fill="#DBE9E5" transform="translate(54.3125,168.8125)"/>
<path d="M0 0 C0.33 0 0.66 0 1 0 C1.32759011 9.66390816 0.11694887 18.83767853 -3 28 C-3.37531446 30.32694964 -3.71917202 32.65976685 -4 35 C-4.33 35 -4.66 35 -5 35 C-5.37780284 27.44394316 -3.94496797 20.39667385 -2.5 13 C-2.26152344 11.74832031 -2.02304688 10.49664062 -1.77734375 9.20703125 C-1.19140445 6.13670932 -0.59878882 3.06783718 0 0 Z " fill="#CBE0D9" transform="translate(165,106)"/>
<path d="M0 0 C1.52010334 3.97879399 0.52439437 7.60264412 -0.3125 11.625 C-0.45276611 12.33269531 -0.59303223 13.04039063 -0.73754883 13.76953125 C-1.15091132 15.84793772 -1.57495893 17.92395604 -2 20 C-2.39616825 21.99993369 -2.7920688 23.99992045 -3.1875 26 C-3.45728004 27.33354685 -3.72762815 28.6669801 -4 30 C-4.33 30 -4.66 30 -5 30 C-4.67 23.4 -4.34 16.8 -4 10 C-3.01 9.67 -2.02 9.34 -1 9 C-1.020625 7.700625 -1.04125 6.40125 -1.0625 5.0625 C-1.08399454 3.70834367 -1.07148199 2.35243917 -1 1 C-0.67 0.67 -0.34 0.34 0 0 Z " fill="#52A88F" transform="translate(166,96)"/>
<path d="M0 0 C0.99 0.33 1.98 0.66 3 1 C2.01 2.485 2.01 2.485 1 4 C1.70125 4.495 2.4025 4.99 3.125 5.5 C6.15018558 8.13059616 8.24157283 10.86300526 10.57421875 14.09375 C12.20306107 16.27148987 14.00292296 18.15654427 16 20 C11.80508557 19.4950566 9.86515562 17.20250793 7 14.25 C6.154375 13.38890625 5.30875 12.5278125 4.4375 11.640625 C2.16303485 9.17662109 0.05665299 6.64698857 -2 4 C-1.34 2.68 -0.68 1.36 0 0 Z " fill="#E1EDEB" transform="translate(73,151)"/>
<path d="M0 0 C0.33 0 0.66 0 1 0 C1.08159574 4.16138263 0.98248524 7.9472484 0 12 C0.66 12 1.32 12 2 12 C2 12.66 2 13.32 2 14 C-1.48670834 12.8905928 -4.77484237 11.73662334 -8 10 C-8 9.01 -8 8.02 -8 7 C-5.36 6.67 -2.72 6.34 0 6 C0 4.02 0 2.04 0 0 Z " fill="#46A288" transform="translate(45,106)"/>
<path d="M0 0 C1.05960938 0.08378906 2.11921875 0.16757813 3.2109375 0.25390625 C4.59893625 0.35706832 5.98695835 0.45991663 7.375 0.5625 C8.07367188 0.61857422 8.77234375 0.67464844 9.4921875 0.73242188 C13.36528865 1.11499904 13.36528865 1.11499904 17 0 C18.54023996 -0.06950541 20.08334988 -0.08452357 21.625 -0.0625 C22.85089844 -0.04896484 22.85089844 -0.04896484 24.1015625 -0.03515625 C25.04128906 -0.01775391 25.04128906 -0.01775391 26 0 C26 0.66 26 1.32 26 2 C22.535 3.485 22.535 3.485 19 5 C18.67 4.34 18.34 3.68 18 3 C15.51723744 2.7392803 13.11443931 2.57866258 10.625 2.5 C3.40387463 2.26924975 3.40387463 2.26924975 0 0 Z " fill="#178E80" transform="translate(165,221)"/>
<path d="M0 0 C0.33 0 0.66 0 1 0 C1 4.62 1 9.24 1 14 C0.34 14 -0.32 14 -1 14 C-1 19.28 -1 24.56 -1 30 C-1.33 30 -1.66 30 -2 30 C-2.19789024 26.77138267 -2.38146345 23.54210273 -2.5625 20.3125 C-2.61857422 19.40048828 -2.67464844 18.48847656 -2.73242188 17.54882812 C-2.78076172 16.66259766 -2.82910156 15.77636719 -2.87890625 14.86328125 C-2.9260376 14.05157471 -2.97316895 13.23986816 -3.02172852 12.40356445 C-2.99838228 9.8210515 -2.5804792 7.51150091 -2 5 C-1.34 5 -0.68 5 0 5 C0 3.35 0 1.7 0 0 Z " fill="#8BC2B2" transform="translate(179,69)"/>
<path d="M0 0 C5.28137429 0.51525603 8.57221156 2.25477117 13 5 C13 6.32 13 7.64 13 9 C10.20807795 9.05380578 7.4171859 9.09357669 4.625 9.125 C3.8309375 9.14175781 3.036875 9.15851563 2.21875 9.17578125 C0.14507985 9.19335473 -1.92883241 9.10335168 -4 9 C-4.66 8.34 -5.32 7.68 -6 7 C-0.39 7 5.22 7 11 7 C7.37 5.02 3.74 3.04 0 1 C0 0.67 0 0.34 0 0 Z " fill="#B0D4CA" transform="translate(163,196)"/>
<path d="M0 0 C0.33 0.99 0.66 1.98 1 3 C2.97057136 3.74919486 4.98133646 4.39218263 7 5 C10.31560906 6.31797954 13.59281774 7.7261181 16.875 9.125 C17.75414063 9.49753906 18.63328125 9.87007812 19.5390625 10.25390625 C21.69358227 11.16723528 23.84719024 12.08264932 26 13 C26 13.33 26 13.66 26 14 C18.31093588 13.70426676 12.69521193 10.5886336 6 7 C4.00278807 5.99444318 2.00355443 4.99285932 0 4 C0 2.68 0 1.36 0 0 Z " fill="#ECF2F0" transform="translate(36,113)"/>
<path d="M0 0 C0.66 0 1.32 0 2 0 C2.02725341 1.7290774 2.04650987 3.45828176 2.0625 5.1875 C2.07410156 6.15042969 2.08570313 7.11335937 2.09765625 8.10546875 C2.00486622 10.85576513 1.62111685 13.32479591 1 16 C0.34 15.67 -0.32 15.34 -1 15 C-1.66 16.32 -2.32 17.64 -3 19 C-4.7093832 15.58123361 -2.95633777 11.93878035 -2.0625 8.375 C-1.86720703 7.57320312 -1.67191406 6.77140625 -1.47070312 5.9453125 C-0.98668398 3.96201453 -0.49413978 1.98080066 0 0 Z " fill="#B0D5D2" transform="translate(205,157)"/>
<path d="M0 0 C0.33 0 0.66 0 1 0 C1.46909786 10.88046418 1.00272711 19.72514247 -3 30 C-4.65 30.33 -6.3 30.66 -8 31 C-7.01 30.34 -6.02 29.68 -5 29 C-1.42022104 19.77518498 -0.82971792 9.76242569 0 0 Z " fill="#D6E5E1" transform="translate(141,22)"/>
<path d="M0 0 C1.32 0.33 2.64 0.66 4 1 C4 2.32 4 3.64 4 5 C-1.75 5.125 -1.75 5.125 -4 4 C-4.78375 4.495 -5.5675 4.99 -6.375 5.5 C-9 7 -9 7 -11.3125 6.6875 C-11.869375 6.460625 -12.42625 6.23375 -13 6 C-8.38987758 3.04952165 -5.63470383 1.4502728 0 2 C0 1.34 0 0.68 0 0 Z " fill="#CDE3DC" transform="translate(121,9)"/>
<path d="M0 0 C0.66 0.33 1.32 0.66 2 1 C1.67 1.99 1.34 2.98 1 4 C-7.72909873 6.43155255 -14.37481724 5.55053099 -23 3 C-23 2.67 -23 2.34 -23 2 C-15.41 2.33 -7.82 2.66 0 3 C0 2.01 0 1.02 0 0 Z " fill="#F1F5F4" transform="translate(176,202)"/>
<path d="M0 0 C0 3.3 0 6.6 0 10 C-0.33 10 -0.66 10 -1 10 C-1 7.36 -1 4.72 -1 2 C-7.14777908 4.98074137 -11.27807625 10.41711437 -15 16 C-14.49154416 11.36457759 -12.65285356 8.77761856 -9.75 5.1875 C-8.98171875 4.21167969 -8.2134375 3.23585938 -7.421875 2.23046875 C-5 0 -5 0 0 0 Z " fill="#D2E4DE" transform="translate(25,123)"/>
<path d="M0 0 C2 0.3125 2 0.3125 4 1 C4.33 1.66 4.66 2.32 5 3 C3.02 3 1.04 3 -1 3 C-1.66 6.63 -2.32 10.26 -3 14 C0.63 14 4.26 14 8 14 C8 14.33 8 14.66 8 15 C4.04 15 0.08 15 -4 15 C-4.43026539 5.3907397 -4.43026539 5.3907397 -1 1 C-0.67 0.67 -0.34 0.34 0 0 Z " fill="#B4D1C8" transform="translate(7,105)"/>
<path d="M0 0 C5.09595491 1.34104077 9.12597125 3.77628515 13.53515625 6.5625 C15.96474977 7.97944202 18.36652336 9.02359511 21 10 C16.73255048 11.42248317 13.89476112 9.82058951 10 8 C6.56269514 6.1615553 3.14309525 4.31223605 0 2 C0 1.34 0 0.68 0 0 Z " fill="#CBE1E2" transform="translate(117,195)"/>
<path d="M0 0 C-8.73417722 5.82278481 -8.73417722 5.82278481 -13.125 6.4375 C-16.97213532 7.19020039 -18.4753939 9.1041283 -21 12 C-19.61643997 9.02002455 -18.2921279 6.37116679 -16 4 C-12.5625 2.875 -12.5625 2.875 -9 2 C-8.29875 1.62875 -7.5975 1.2575 -6.875 0.875 C-4.49603029 -0.23518586 -2.59269691 -0.14403872 0 0 Z " fill="#76B8A3" transform="translate(122,12)"/>
<path d="M0 0 C1.44558008 2.77753377 2.65035413 5.54539908 3.6875 8.5 C3.95949219 9.2528125 4.23148438 10.005625 4.51171875 10.78125 C5.0519311 13.23597493 4.79774824 14.64423338 4 17 C4 16.34 4 15.68 4 15 C3.01 15 2.02 15 1 15 C1 12.36 1 9.72 1 7 C0.34 7 -0.32 7 -1 7 C-0.67 4.69 -0.34 2.38 0 0 Z " fill="#62B1B1" transform="translate(206,150)"/>
<path d="M0 0 C4.10801767 1.18676066 5.89448334 1.89448334 9 5 C4.05 5 -0.9 5 -6 5 C-4.68 4.34 -3.36 3.68 -2 3 C-1.34 2.01 -0.68 1.02 0 0 Z " fill="#259274" transform="translate(166,199)"/>
<path d="M0 0 C-1.15173355 2.46800047 -2.04783565 4.04783565 -4 6 C-4.70710678 7.64991582 -5.37943989 9.31562256 -6 11 C-6.185625 10.071875 -6.185625 10.071875 -6.375 9.125 C-6.87197356 6.80879168 -6.87197356 6.80879168 -9 5 C-6.3784932 1.13015663 -4.82784953 0 0 0 Z " fill="#359C7B" transform="translate(112,17)"/>
<path d="M0 0 C2.31 0.33 4.62 0.66 7 1 C8.06351675 4.38391693 8.21442982 5.5804634 6.5625 8.8125 C6.046875 9.534375 5.53125 10.25625 5 11 C3.68 10.67 2.36 10.34 1 10 C1.474375 9.608125 1.94875 9.21625 2.4375 8.8125 C4.35179633 6.59191626 4.61266988 4.86624291 5 2 C3.35 1.67 1.7 1.34 0 1 C0 0.67 0 0.34 0 0 Z " fill="#C7E0D9" transform="translate(73,140)"/>
<path d="M0 0 C1.30574977 3.73334089 0.7601248 6.77074951 0.125 10.625 C-0.05804688 11.77226563 -0.24109375 12.91953125 -0.4296875 14.1015625 C-1 17 -1 17 -2 19 C-2.66 19 -3.32 19 -4 19 C-3.37968409 12.42465139 -1.85102717 6.33307408 0 0 Z " fill="#B6D5CC" transform="translate(175,58)"/>
<path d="M0 0 C2.42130331 2.42130331 2.52840504 3.80111377 3.125 7.125 C3.29257813 8.03507813 3.46015625 8.94515625 3.6328125 9.8828125 C3.81457031 10.93082031 3.81457031 10.93082031 4 12 C4.99 12.33 5.98 12.66 7 13 C6.01 14.485 6.01 14.485 5 16 C3.68 15.67 2.36 15.34 1 15 C0.67 10.05 0.34 5.1 0 0 Z " fill="#43A186" transform="translate(179,185)"/>
<path d="M0 0 C1.98 1.32 3.96 2.64 6 4 C5.67 5.32 5.34 6.64 5 8 C1.7 8 -1.6 8 -5 8 C-5 7.67 -5 7.34 -5 7 C-3.02 7 -1.04 7 1 7 C0.67 4.69 0.34 2.38 0 0 Z " fill="#3C9C80" transform="translate(15,111)"/>
<path d="M0 0 C0 2.31 0 4.62 0 7 C-0.99 6.01 -1.98 5.02 -3 4 C-3.33 4.99 -3.66 5.98 -4 7 C-5.65 7 -7.3 7 -9 7 C-8.07347299 5.82460004 -7.13336613 4.65989423 -6.1875 3.5 C-5.66542969 2.8503125 -5.14335937 2.200625 -4.60546875 1.53125 C-3 0 -3 0 0 0 Z " fill="#42A084" transform="translate(24,125)"/>
<path d="M0 0 C4.18238834 0.54769371 6.59868545 2.89888889 9.75 5.5625 C11.22726563 6.80193359 11.22726563 6.80193359 12.734375 8.06640625 C13.48203125 8.70449219 14.2296875 9.34257812 15 10 C14.01 10.33 13.02 10.66 12 11 C10.37438849 9.54234835 8.74953066 8.08385614 7.125 6.625 C6.22007813 5.81289062 5.31515625 5.00078125 4.3828125 4.1640625 C2.89103817 2.80923795 1.42494565 1.42494565 0 0 Z " fill="#E2ECEA" transform="translate(98,172)"/>
<path d="M0 0 C0.66 0.33 1.32 0.66 2 1 C2 2.65 2 4.3 2 6 C1.34 6 0.68 6 0 6 C0 6.66 0 7.32 0 8 C-0.99 8 -1.98 8 -3 8 C-3.75 6.25 -3.75 6.25 -4 4 C-2.0625 1.75 -2.0625 1.75 0 0 Z " fill="#138D68" transform="translate(21,128)"/>
<path d="M0 0 C3.3 0.33 6.6 0.66 10 1 C10 1.33 10 1.66 10 2 C8.02 2.33 6.04 2.66 4 3 C4 2.34 4 1.68 4 1 C3.34 1 2.68 1 2 1 C2.66 2.65 3.32 4.3 4 6 C3.34 6 2.68 6 2 6 C1.67 6.99 1.34 7.98 1 9 C0.67 6.03 0.34 3.06 0 0 Z " fill="#369C7E" transform="translate(31,125)"/>
<path d="M0 0 C2.0625 -0.375 2.0625 -0.375 5 0 C7.53572282 1.79177109 9.77174488 3.84238121 12 6 C11.67 6.99 11.34 7.98 11 9 C10.55269531 8.48308594 10.10539062 7.96617188 9.64453125 7.43359375 C7.83906492 5.46644387 6.0971513 3.65518966 4 2 C1.13079138 1.86789525 1.13079138 1.86789525 -1 3 C-0.67 2.01 -0.34 1.02 0 0 Z " fill="#DCEAE5" transform="translate(6,104)"/>
<path d="M0 0 C5.27749285 0.53851968 9.25645564 1.77343836 14 4 C14 4.33 14 4.66 14 5 C8.34388537 5.56561146 4.77357872 3.71391278 0 1 C0 0.67 0 0.34 0 0 Z " fill="#CDE2DD" transform="translate(130,195)"/>
<path d="M0 0 C-0.8353125 0.37125 -0.8353125 0.37125 -1.6875 0.75 C-4.15464798 1.99199765 -4.15464798 1.99199765 -6.625 4.125 C-9 6 -9 6 -11 6 C-11.33 6.99 -11.66 7.98 -12 9 C-12.33 8.01 -12.66 7.02 -13 6 C-6.07061503 -0.88838269 -6.07061503 -0.88838269 0 0 Z " fill="#E8F1EE" transform="translate(123,14)"/>
<path d="M0 0 C-0.33 0.99 -0.66 1.98 -1 3 C-3.31 3.33 -5.62 3.66 -8 4 C-8.33 2.68 -8.66 1.36 -9 0 C-5.52176885 -1.15941038 -3.54104422 -0.70820884 0 0 Z " fill="#229072" transform="translate(190,194)"/>
<path d="M0 0 C-1.77444972 2.24606427 -2.58352485 2.95081002 -5.48046875 3.29296875 C-6.82044922 3.24076172 -6.82044922 3.24076172 -8.1875 3.1875 C-9.53908203 3.14689453 -9.53908203 3.14689453 -10.91796875 3.10546875 C-11.60503906 3.07066406 -12.29210937 3.03585938 -13 3 C-13 2.67 -13 2.34 -13 2 C-11.21089097 1.47044766 -9.41860852 0.9516063 -7.625 0.4375 C-6.62726563 0.14746094 -5.62953125 -0.14257812 -4.6015625 -0.44140625 C-2 -1 -2 -1 0 0 Z " fill="#BEDAD2" transform="translate(187,226)"/>
<path d="M0 0 C1.37095624 3.69037278 0.60010967 5.70883835 -0.9375 9.25 C-1.31777344 10.14203125 -1.69804688 11.0340625 -2.08984375 11.953125 C-2.39019531 12.62859375 -2.69054688 13.3040625 -3 14 C-4.29887873 9.80858283 -3.42963299 7.1384113 -2 3 C-1.34 2.01 -0.68 1.02 0 0 Z " fill="#BBD8CF" transform="translate(52,75)"/>
<path d="M0 0 C0 0.66 0 1.32 0 2 C-3.465 3.485 -3.465 3.485 -7 5 C-7.33 3.68 -7.66 2.36 -8 1 C-5.10765685 0.17361624 -3.11257569 0 0 0 Z " fill="#24907B" transform="translate(191,221)"/>
<path d="M0 0 C1.1484375 1.734375 1.1484375 1.734375 2 4 C1.1015625 6.140625 1.1015625 6.140625 -0.375 8.25 C-0.85710938 8.95640625 -1.33921875 9.6628125 -1.8359375 10.390625 C-2.22007813 10.92171875 -2.60421875 11.4528125 -3 12 C-4 10 -4 10 -3.22265625 7.6171875 C-2.83980469 6.71226563 -2.45695312 5.80734375 -2.0625 4.875 C-1.68222656 3.96492188 -1.30195312 3.05484375 -0.91015625 2.1171875 C-0.60980469 1.41851562 -0.30945312 0.71984375 0 0 Z " fill="#409F85" transform="translate(59,57)"/>
<path d="M0 0 C-0.33 0.99 -0.66 1.98 -1 3 C-1.99 2.67 -2.98 2.34 -4 2 C-4 2.66 -4 3.32 -4 4 C-6.31 4.33 -8.62 4.66 -11 5 C-10.01 4.67 -9.02 4.34 -8 4 C-8 3.34 -8 2.68 -8 2 C-2.25 0 -2.25 0 0 0 Z " fill="#73B6B6" transform="translate(190,207)"/>
<path d="M0 0 C3.91211733 1.15585285 6.8745041 2.35534962 10 5 C4.5388601 4.64766839 4.5388601 4.64766839 2 4 C0.5 1.9375 0.5 1.9375 0 0 Z " fill="#B7D7CE" transform="translate(120,220)"/>
<path d="M0 0 C0.66 0.33 1.32 0.66 2 1 C2 1.99 2 2.98 2 4 C0.35 4.66 -1.3 5.32 -3 6 C-1.125 1.125 -1.125 1.125 0 0 Z " fill="#31948D" transform="translate(194,216)"/>
<path d="M0 0 C1.98 0.66 3.96 1.32 6 2 C6.33 3.65 6.66 5.3 7 7 C5.83040013 6.02433888 4.66438823 5.044375 3.5 4.0625 C2.8503125 3.51722656 2.200625 2.97195312 1.53125 2.41015625 C1.0259375 1.94480469 0.520625 1.47945312 0 1 C0 0.67 0 0.34 0 0 Z " fill="#46A086" transform="translate(70,184)"/>
<path d="M0 0 C1.32 0.66 2.64 1.32 4 2 C4 2.99 4 3.98 4 5 C2.35 4.67 0.7 4.34 -1 4 C-0.67 2.68 -0.34 1.36 0 0 Z " fill="#178E6A" transform="translate(20,137)"/>
<path d="M0 0 C3.875 1.75 3.875 1.75 5 4 C5.039992 5.99960012 5.04346799 8.00047242 5 10 C4.731875 9.4225 4.46375 8.845 4.1875 8.25 C3.04946754 5.94252104 3.04946754 5.94252104 1.375 3.875 C0 2 0 2 0 0 Z " fill="#D0E3DE" transform="translate(136,12)"/>
<path d="M0 0 C0.66 0.33 1.32 0.66 2 1 C0.25 3.0625 0.25 3.0625 -2 5 C-4.25 4.75 -4.25 4.75 -6 4 C-4.02 2.68 -2.04 1.36 0 0 Z " fill="#DBEAE6" transform="translate(191,195)"/>
<path d="M0 0 C3.465 1.485 3.465 1.485 7 3 C7 3.66 7 4.32 7 5 C7.66 5.33 8.32 5.66 9 6 C8.01 6 7.02 6 6 6 C6 5.34 6 4.68 6 4 C4.68 4.33 3.36 4.66 2 5 C2 4.01 2 3.02 2 2 C1.34 2 0.68 2 0 2 C0 1.34 0 0.68 0 0 Z " fill="#359895" transform="translate(110,192)"/>
<path d="M0 0 C5.75 1.875 5.75 1.875 8 3 C8 3.66 8 4.32 8 5 C4.5625 4.1875 4.5625 4.1875 1 3 C0.67 2.01 0.34 1.02 0 0 Z " fill="#409E83" transform="translate(63,136)"/>
<path d="M0 0 C2 0.3125 2 0.3125 4 1 C4.33 1.66 4.66 2.32 5 3 C3.02 3 1.04 3 -1 3 C-1.33 3.99 -1.66 4.98 -2 6 C-1.125 1.125 -1.125 1.125 0 0 Z " fill="#69B29B" transform="translate(7,105)"/>
<path d="M0 0 C2.4375 0.375 2.4375 0.375 5 1 C5.33 1.66 5.66 2.32 6 3 C5.01 4.485 5.01 4.485 4 6 C2.68 4.02 1.36 2.04 0 0 Z " fill="#2B9575" transform="translate(135,8)"/>
</svg>
